<?xml version="1.0" encoding="UTF-8" standalone="no"?>
<!-- This Source Code Form is subject to the terms of the Mozilla Public
   - License, v. 2.0. If a copy of the MPL was not distributed with this
   - file, You can obtain one at http://mozilla.org/MPL/2.0/. -->

<svg
   id="a"
   width="282.41101"
   height="400.48099"
   data-name="Layer 2"
   version="1.1"
   xml:space="preserve"
   xmlns="http://www.w3.org/2000/svg"
   xmlns:svg="http://www.w3.org/2000/svg"><defs
     id="defs23"><style
       id="style23">.n{fill:#fff}.o{fill:#825923}.p{fill:#3d2020}</style></defs><g
     style="fill:#000000"
     id="g43"
     transform="matrix(4.6151573,0,0,4.7648044,22.905004,116.51892)"><g
       id="SVGRepo_bgCarrier-3"
       stroke-width="0" /><g
       id="SVGRepo_tracerCarrier-6"
       stroke-linecap="round"
       stroke-linejoin="round" /><g
       id="SVGRepo_iconCarrier-7"> <g
   id="g6"> <g
   id="g5"> <path
   style="fill:#010002"
   d="m 52.208,26.169 c -0.765,-0.435 -1.631,-0.663 -2.51,-0.663 -0.246,0 -0.488,0.02 -0.729,0.054 -0.102,-0.535 -0.348,-1.061 -0.709,-1.528 -2.422,-3.126 -4.815,-6.299 -7.408,-9.288 -0.305,-0.352 -0.639,-0.584 -0.977,-0.723 -0.969,-0.7 -2.151,-1.117 -3.438,-1.117 -2.225,0 -4.156,1.237 -5.154,3.059 -1.513,1.112 -3.023,2.225 -4.537,3.337 -0.39,0.074 -0.78,0.148 -1.168,0.223 -1.127,0.214 -2.253,0.428 -3.38,0.643 -1.639,0.312 -3.277,0.623 -4.917,0.935 -1.473,0.281 -2.034,1.411 -1.926,2.55 l -5.89,1.624 -5.813,-14.74 -1.999,0.79 12.177,30.877 2,-0.789 -5.968,-15.133 5.781,-1.593 c 0.503,1.062 1.603,1.875 3.066,1.595 3.278,-0.623 6.556,-1.247 9.833,-1.871 0.662,-0.126 1.355,-0.57 2.022,-1.089 v 8.914 c 0,0.291 0.027,0.572 0.067,0.853 0,5.801 0,11.604 0,17.403 0,3.467 5.373,3.467 5.373,0 0,-4.135 0,-8.271 0,-12.405 0.144,0.01 0.285,0.021 0.431,0.021 0.418,0 0.824,-0.046 1.218,-0.129 1.409,4.289 2.691,8.614 3.697,13.022 0.771,3.376 5.949,1.944 5.182,-1.429 C 45.333,44.316 43.741,39.177 42.009,34.08 42.2,33.5 42.31,32.882 42.31,32.236 v -7.187 c 0.718,0.927 1.434,1.856 2.15,2.782 0.17,0.221 0.388,0.377 0.621,0.502 -0.604,1.164 -0.758,2.488 -0.42,3.757 0.356,1.333 1.209,2.44 2.403,3.12 0.114,0.064 0.236,0.098 0.356,0.098 0.552,0 0.75,-0.562 0.964,-1.158 0.227,-0.646 0.444,-1.179 0.784,-1.179 0.037,0 0.08,0.005 0.123,0.015 0.604,0.137 0.994,0.848 1.307,1.414 0.311,0.564 0.577,1.053 1.087,1.053 0.129,0 0.257,-0.037 0.379,-0.107 0.664,-0.391 1.376,-0.934 2.239,-1.709 0.854,-0.766 1.236,-1.775 1.111,-2.922 -0.181,-1.707 -1.501,-3.576 -3.206,-4.546 z M 26.833,19.284 c 0.252,-0.116 0.325,-0.066 0,0 z m 26.878,13.687 c -0.775,0.696 -1.414,1.19 -1.998,1.546 -0.094,-0.119 -0.227,-0.359 -0.327,-0.546 -0.378,-0.688 -0.896,-1.631 -1.896,-1.856 -0.105,-0.021 -0.214,-0.037 -0.316,-0.037 -1,0 -1.377,1.066 -1.627,1.772 -0.055,0.153 -0.127,0.357 -0.19,0.494 -0.903,-0.565 -1.55,-1.44 -1.83,-2.485 -0.295,-1.103 -0.144,-2.264 0.425,-3.264 0.604,0.061 1.234,-0.076 1.756,-0.365 -0.029,0.082 -0.054,0.168 -0.054,0.258 0,0.434 0.351,0.783 0.782,0.783 0.431,0 0.779,-0.351 0.779,-0.783 0,-0.431 -0.35,-0.779 -0.779,-0.779 -0.031,0 -0.059,0.013 -0.088,0.017 0.355,-0.39 0.564,-0.817 0.64,-1.26 0.234,-0.04 0.47,-0.067 0.712,-0.067 0.723,0 1.438,0.189 2.065,0.546 1.243,0.707 2.593,2.262 2.766,3.864 0.093,0.862 -0.183,1.591 -0.82,2.162 z"
   id="path1" /> <circle
   style="fill:#010002"
   cx="46.874001"
   cy="30.733999"
   r="0.78100002"
   id="circle1" /> <path
   style="fill:#010002"
   d="m 51.187,27.708 c -0.431,0 -0.778,0.349 -0.778,0.779 0,0.434 0.348,0.783 0.778,0.783 0.433,0 0.783,-0.351 0.783,-0.783 0,-0.43 -0.35,-0.779 -0.783,-0.779 z"
   id="path2" /> <circle
   style="fill:#010002"
   cx="52.898998"
   cy="30.478001"
   r="0.78200001"
   id="circle2" /> <path
   style="fill:#010002"
   d="M 6.911,25.007 0,51.62 15.499,51.61 9.822,34.28 Z m -4.824,24.99 4.971,-19.143 1.23,3.92 4.989,15.236 z"
   id="path3" /> <path
   style="fill:#010002"
   d="m 36.44,12.349 c 2.242,0 4.061,-1.818 4.061,-4.06 h -8.119 c -0.003,2.242 1.818,4.06 4.058,4.06 z"
   id="path4" /> <path
   style="fill:#010002"
   d="M 34.036,7.681 38.974,7.67 c 1.553,0 2.813,-0.788 2.813,-1.991 0,-1.112 -1.076,-2.027 -2.463,-2.162 -0.563,-0.703 -1.563,-1.172 -2.709,-1.172 -1.24,0 -2.312,0.549 -2.839,1.348 -1.303,0.101 -2.321,0.953 -2.321,1.99 0.001,1.104 1.157,1.998 2.581,1.998 z"
   id="path5-5" /> </g> </g> </g></g><g
     id="svgg"
     transform="matrix(0.15594634,0,0,0.16780984,208.4832,31.012014)"><path
       id="path0"
       d="m 344.4,120.567 c 0,0.348 0.285,0.633 0.633,0.633 0.707,0 0.584,-0.861 -0.158,-1.108 -0.261,-0.087 -0.475,0.126 -0.475,0.475 m 1.6,3.2 c 0,0.348 0.285,0.633 0.633,0.633 0.349,0 0.562,-0.214 0.475,-0.475 C 346.861,123.183 346,123.06 346,123.767 M 198,137.6 c -4.822,0.18 -9.271,0.558 -10.8,0.915 -1.43,0.335 -4.095,0.729 -5.921,0.876 -1.827,0.147 -3.936,0.525 -4.688,0.838 -0.751,0.314 -1.82,0.571 -2.377,0.571 -0.556,0 -2.047,0.344 -3.312,0.765 -1.266,0.421 -3.022,0.888 -3.902,1.036 -0.88,0.149 -1.794,0.431 -2.031,0.627 -0.237,0.196 -1.587,0.523 -3,0.727 -1.413,0.204 -3.109,0.656 -3.769,1.005 -0.66,0.349 -1.506,0.636 -1.881,0.638 -0.638,0.002 -2.744,1.042 -9.195,4.543 -2.466,1.337 -3.924,1.556 -3.924,0.588 0,-0.964 -1.137,-1.557 -1.4,-0.73 -0.139,0.44 -0.602,0.801 -1.027,0.801 -0.506,0 -0.773,0.276 -0.773,0.8 0,0.652 -0.267,0.8 -1.437,0.8 -1.101,0 -1.487,0.187 -1.647,0.8 -0.116,0.443 -0.546,0.8 -0.963,0.8 -0.486,0 -0.753,0.283 -0.753,0.8 0,0.561 -0.269,0.802 -0.9,0.806 -1.771,0.012 -2.048,0.521 -2.661,4.892 -0.402,2.866 -0.711,3.398 -4.074,7.014 -1.081,1.162 -1.965,2.23 -1.965,2.374 0,0.144 -0.351,0.993 -0.779,1.888 -0.429,0.894 -0.968,2.076 -1.199,2.626 -0.231,0.55 -0.601,1.27 -0.821,1.6 -0.221,0.33 -0.581,1.05 -0.8,1.6 -0.22,0.55 -0.551,1.27 -0.737,1.6 -0.447,0.793 -1.93,3.94 -2.449,5.2 -0.227,0.55 -0.582,1.27 -0.789,1.6 -0.956,1.523 -2.972,6.918 -3.664,9.8 -0.212,0.88 -0.649,2.279 -0.973,3.108 -0.878,2.248 -0.768,6.773 0.211,8.692 0.44,0.862 0.8,1.936 0.8,2.386 0,0.449 0.36,1.489 0.8,2.31 0.44,0.82 0.8,1.912 0.8,2.424 0,0.513 0.212,1.326 0.472,1.806 0.26,0.481 0.701,1.774 0.98,2.874 0.651,2.562 1.652,5.642 2.374,7.306 0.311,0.718 0.683,2.068 0.825,3 0.142,0.931 0.392,1.874 0.556,2.094 0.164,0.22 1.221,2.2 2.347,4.4 1.127,2.2 2.232,4.27 2.456,4.6 0.484,0.715 1.427,2.476 3.214,6 0.725,1.43 1.446,2.69 1.602,2.8 0.156,0.11 0.571,0.83 0.921,1.6 0.35,0.77 0.808,1.67 1.016,2 0.209,0.33 0.491,0.87 0.627,1.2 0.137,0.33 0.686,1.32 1.221,2.2 0.535,0.88 1.194,2.05 1.463,2.6 0.934,1.904 2.806,4.011 5.66,6.369 2.832,2.341 12.867,9.231 13.444,9.231 0.164,0 0.624,0.36 1.022,0.8 0.398,0.44 0.972,0.8 1.275,0.8 0.302,0 0.649,0.259 0.771,0.576 0.121,0.316 0.733,0.688 1.36,0.825 0.626,0.138 1.344,0.497 1.594,0.799 0.25,0.302 0.981,0.664 1.623,0.805 0.642,0.141 1.275,0.43 1.406,0.643 0.132,0.212 0.944,0.668 1.805,1.012 0.861,0.345 1.566,0.773 1.566,0.952 0,0.178 0.528,0.44 1.172,0.582 0.645,0.142 1.387,0.516 1.649,0.832 0.262,0.316 0.791,0.574 1.174,0.574 0.383,0 1.141,0.349 1.683,0.775 0.542,0.427 1.459,0.894 2.037,1.039 0.579,0.146 1.252,0.505 1.496,0.8 0.244,0.294 0.972,0.65 1.617,0.792 0.644,0.142 1.172,0.406 1.172,0.587 0,0.181 0.573,0.529 1.274,0.773 0.701,0.244 1.556,0.696 1.9,1.004 0.591,0.528 3.193,0.896 12.826,1.814 9.958,0.949 23.168,0.578 19.722,-0.553 -0.397,-0.13 -1.518,-0.956 -2.49,-1.834 -0.972,-0.878 -1.901,-1.597 -2.065,-1.597 -0.163,0 -3.418,-2.42 -7.232,-5.378 -3.814,-2.958 -8.236,-6.377 -9.827,-7.599 -3.41,-2.618 -3.835,-3.595 -2.454,-5.642 1.207,-1.789 0.182,-1.658 16.746,-2.127 14.81,-0.42 14.247,-0.348 18.2,-2.302 0.66,-0.327 1.47,-0.766 1.8,-0.976 0.33,-0.21 1.05,-0.58 1.6,-0.822 0.55,-0.242 1.27,-0.591 1.6,-0.776 0.33,-0.185 3.3,-1.707 6.6,-3.382 9.29,-4.716 10.092,-5.188 12.317,-7.24 2.506,-2.312 13.362,-12.628 18.265,-17.356 l 3.525,-3.4 0.846,-3.376 c 0.466,-1.857 0.847,-3.928 0.847,-4.603 0,-0.674 0.184,-1.855 0.408,-2.624 0.224,-0.768 0.672,-3.255 0.994,-5.526 0.323,-2.271 0.676,-4.273 0.784,-4.449 0.109,-0.176 0.469,-2.124 0.8,-4.329 0.331,-2.206 0.785,-4.491 1.008,-5.078 0.524,-1.378 0.506,-5.564 -0.034,-7.615 -0.231,-0.88 -0.561,-3.33 -0.734,-5.444 -0.256,-3.134 -0.472,-4.002 -1.17,-4.7 -0.471,-0.471 -0.856,-1.008 -0.856,-1.195 0,-0.186 -0.315,-0.728 -0.7,-1.204 -1.422,-1.756 -2.576,-3.277 -6.389,-8.415 -1.214,-1.636 -7.51,-8.596 -12.883,-14.242 -1.256,-1.32 -3.621,-3.297 -5.256,-4.394 -1.635,-1.096 -3.152,-2.194 -3.372,-2.44 -0.22,-0.245 -1.345,-1.043 -2.5,-1.773 -1.155,-0.73 -2.1,-1.477 -2.1,-1.66 0,-0.183 -0.172,-0.333 -0.382,-0.333 -0.441,0 -2.463,-1.335 -4.68,-3.09 -0.846,-0.67 -2.168,-1.411 -2.938,-1.647 -2.609,-0.801 -6.198,-2.135 -6.6,-2.454 -0.22,-0.174 -1.004,-0.446 -1.742,-0.604 -0.738,-0.158 -2.178,-0.665 -3.2,-1.128 -2.189,-0.99 -9.916,-1.207 -24.058,-0.677"
       stroke="none"
       fill="#04fafa"
       fill-rule="evenodd" /><path
       id="path1-5"
       d="m 349.456,71.878 c -0.451,0.45 -0.275,0.922 0.344,0.922 0.33,0 0.6,-0.169 0.6,-0.376 0,-0.505 -0.625,-0.866 -0.944,-0.546 M 286.8,78.819 c -0.99,0.175 -5.85,0.516 -10.8,0.757 -4.95,0.241 -10.26,0.606 -11.8,0.81 -1.54,0.204 -4.69,0.486 -7,0.626 -2.31,0.14 -5.19,0.534 -6.4,0.876 -1.21,0.341 -3.28,0.857 -4.6,1.146 -1.32,0.289 -3.93,0.905 -5.8,1.37 -1.87,0.465 -4.3,1.034 -5.4,1.264 -1.1,0.231 -2.961,0.76 -4.136,1.176 -1.174,0.416 -2.761,0.756 -3.526,0.756 -0.765,0 -1.784,0.213 -2.264,0.473 -0.481,0.26 -2.044,0.693 -3.474,0.962 -1.43,0.269 -3.543,0.822 -4.696,1.227 l -2.096,0.738 -0.004,1.9 c -0.002,1.045 -0.139,1.879 -0.304,1.853 -0.788,-0.125 -1.324,0.085 -1.108,0.434 0.131,0.213 -0.128,0.616 -0.576,0.896 -0.449,0.28 -0.816,0.72 -0.816,0.978 0,0.258 -0.72,0.59 -1.6,0.739 -0.908,0.153 -1.6,0.495 -1.6,0.791 0,0.286 -0.613,0.635 -1.361,0.775 -0.749,0.141 -1.463,0.521 -1.588,0.845 -0.326,0.851 -3.297,0.793 -3.782,-0.074 -0.254,-0.453 -1.085,-0.722 -2.62,-0.85 -1.237,-0.102 -2.249,-0.344 -2.249,-0.537 0,-0.192 -0.27,-0.35 -0.6,-0.35 -0.33,0 -0.6,0.276 -0.6,0.613 0,0.336 -0.315,0.728 -0.7,0.87 -0.385,0.142 -1.42,0.822 -2.3,1.512 -0.88,0.69 -2.656,1.873 -3.947,2.63 -2.002,1.173 -3.579,2.896 -3.018,3.296 0.091,0.065 1.065,0.829 2.165,1.698 2.493,1.971 4.495,3.381 4.8,3.381 0.339,0 2.578,1.608 4.243,3.047 1.185,1.025 1.928,1.299 4.157,1.538 1.493,0.16 3.366,0.521 4.163,0.802 0.796,0.281 2.255,0.629 3.242,0.774 0.987,0.145 2.695,0.526 3.795,0.846 2.164,0.631 6.573,1.577 10.4,2.232 1.32,0.226 3.12,0.659 4,0.962 0.88,0.303 2.462,0.663 3.515,0.801 1.054,0.139 2.533,0.51 3.287,0.825 0.755,0.315 1.909,0.573 2.564,0.573 1.567,0 4.789,1.713 7.517,3.996 0.266,0.222 0.646,0.404 0.845,0.404 0.199,0 0.996,0.495 1.772,1.1 0.775,0.605 1.745,1.322 2.155,1.593 7.873,5.205 10.945,7.42 10.945,7.894 0,0.283 0.263,0.733 0.584,1 0.321,0.266 1.149,1.593 1.84,2.949 0.691,1.355 1.678,3.184 2.194,4.064 0.516,0.88 1.369,2.41 1.895,3.4 1.294,2.437 4.63,8.458 5.097,9.2 0.208,0.33 0.651,1.14 0.984,1.8 0.333,0.66 1.079,2.01 1.657,3 0.85,1.456 1.11,2.564 1.362,5.8 0.171,2.2 0.537,5.089 0.813,6.42 0.536,2.588 0.207,5.559 -0.44,3.98 -0.181,-0.44 -0.926,-1.44 -1.657,-2.222 -0.731,-0.782 -1.865,-2.222 -2.52,-3.2 -2.236,-3.338 -6.678,-8.562 -12.346,-14.518 -3.115,-3.273 -5.753,-6.068 -5.863,-6.212 -0.11,-0.144 -1.46,-1.125 -3,-2.181 -3.006,-2.061 -6.61,-4.606 -8.152,-5.757 -5.844,-4.362 -6.513,-4.761 -10.248,-6.121 -1.32,-0.481 -2.94,-1.108 -3.6,-1.393 -0.66,-0.285 -2.1,-0.812 -3.2,-1.171 -1.1,-0.359 -2.9,-0.962 -4,-1.339 -2.25,-0.772 -17.792,-0.865 -24.8,-0.149 -2.735,0.279 -0.283,0.355 10.2,0.315 13.33,-0.05 13.863,-0.023 15.658,0.807 1.022,0.473 2.462,0.988 3.2,1.146 0.738,0.158 1.522,0.43 1.742,0.604 0.402,0.319 3.991,1.653 6.6,2.454 0.77,0.236 2.092,0.977 2.938,1.647 2.217,1.755 4.239,3.09 4.68,3.09 0.21,0 0.382,0.15 0.382,0.333 0,0.183 0.945,0.93 2.1,1.66 1.155,0.73 2.28,1.528 2.5,1.773 0.22,0.246 1.737,1.344 3.372,2.44 3.039,2.039 5.811,4.758 13.228,12.979 2.707,3 4.307,4.843 4.911,5.657 3.813,5.138 4.967,6.659 6.389,8.415 0.385,0.476 0.7,1.018 0.7,1.204 0,0.187 0.385,0.724 0.856,1.195 0.698,0.698 0.914,1.566 1.17,4.7 0.173,2.114 0.503,4.564 0.734,5.444 0.54,2.051 0.558,6.237 0.034,7.615 -0.223,0.587 -0.677,2.872 -1.008,5.078 -0.331,2.205 -0.691,4.153 -0.8,4.329 -0.108,0.176 -0.461,2.178 -0.784,4.449 -0.322,2.271 -0.77,4.758 -0.994,5.526 -0.224,0.769 -0.408,1.95 -0.408,2.624 0,0.675 -0.381,2.746 -0.847,4.603 l -0.846,3.376 -3.525,3.4 c -4.903,4.728 -15.759,15.044 -18.265,17.356 -2.225,2.052 -3.027,2.524 -12.317,7.24 -3.3,1.675 -6.27,3.197 -6.6,3.382 -0.33,0.185 -1.05,0.545 -1.6,0.799 -1.566,0.724 -3.343,1.629 -4,2.038 -2.481,1.543 -3.251,1.632 -17.6,2.039 -16.564,0.469 -15.539,0.338 -16.746,2.127 -1.381,2.047 -0.956,3.024 2.454,5.642 1.591,1.222 6.013,4.641 9.827,7.599 3.814,2.958 7.069,5.378 7.232,5.378 0.164,0 1.093,0.719 2.065,1.597 0.972,0.878 2.093,1.704 2.49,1.834 3.446,1.131 -9.764,1.502 -19.722,0.553 -9.633,-0.918 -12.235,-1.286 -12.826,-1.814 -0.344,-0.308 -1.199,-0.76 -1.9,-1.004 -0.701,-0.244 -1.274,-0.587 -1.274,-0.762 0,-0.174 -0.495,-0.441 -1.1,-0.592 -0.605,-0.151 -1.37,-0.509 -1.7,-0.796 -0.33,-0.287 -1.05,-0.657 -1.6,-0.824 -0.55,-0.166 -1.429,-0.637 -1.954,-1.047 -0.525,-0.41 -1.268,-0.745 -1.651,-0.745 -0.383,0 -0.912,-0.258 -1.174,-0.574 -0.262,-0.316 -1.004,-0.69 -1.649,-0.832 -0.644,-0.142 -1.172,-0.404 -1.172,-0.582 0,-0.179 -0.705,-0.607 -1.566,-0.952 -0.861,-0.344 -1.673,-0.8 -1.805,-1.012 -0.131,-0.213 -0.764,-0.502 -1.406,-0.643 -0.642,-0.141 -1.373,-0.503 -1.623,-0.805 -0.25,-0.302 -0.968,-0.661 -1.594,-0.799 -0.627,-0.137 -1.239,-0.509 -1.36,-0.825 -0.122,-0.317 -0.469,-0.576 -0.771,-0.576 -0.303,0 -0.877,-0.36 -1.275,-0.8 -0.398,-0.44 -0.858,-0.8 -1.022,-0.8 -0.577,0 -10.612,-6.89 -13.444,-9.231 -2.854,-2.358 -4.726,-4.465 -5.66,-6.369 -0.269,-0.55 -0.928,-1.72 -1.463,-2.6 -0.535,-0.88 -1.084,-1.87 -1.221,-2.2 -0.136,-0.33 -0.418,-0.87 -0.627,-1.2 -0.208,-0.33 -0.666,-1.23 -1.016,-2 -0.35,-0.77 -0.765,-1.49 -0.921,-1.6 -0.156,-0.11 -0.877,-1.37 -1.602,-2.8 -1.787,-3.524 -2.73,-5.285 -3.214,-6 -0.224,-0.33 -1.329,-2.4 -2.456,-4.6 -1.126,-2.2 -2.183,-4.18 -2.347,-4.4 -0.164,-0.22 -0.414,-1.163 -0.556,-2.094 -0.142,-0.932 -0.514,-2.282 -0.825,-3 -0.722,-1.664 -1.723,-4.744 -2.374,-7.306 -0.279,-1.1 -0.72,-2.393 -0.98,-2.874 -0.26,-0.48 -0.472,-1.293 -0.472,-1.806 0,-0.512 -0.36,-1.604 -0.8,-2.424 -0.44,-0.821 -0.8,-1.861 -0.8,-2.31 0,-0.45 -0.36,-1.524 -0.8,-2.386 -0.979,-1.919 -1.089,-6.444 -0.211,-8.692 0.324,-0.829 0.761,-2.228 0.973,-3.108 0.692,-2.882 2.708,-8.277 3.664,-9.8 0.207,-0.33 0.562,-1.05 0.789,-1.6 0.519,-1.26 2.002,-4.407 2.449,-5.2 0.186,-0.33 0.517,-1.05 0.737,-1.6 0.219,-0.55 0.579,-1.27 0.8,-1.6 0.22,-0.33 0.59,-1.05 0.821,-1.6 0.231,-0.55 0.77,-1.732 1.199,-2.626 0.428,-0.895 0.779,-1.744 0.779,-1.888 0,-0.144 0.884,-1.212 1.965,-2.374 3.248,-3.491 3.69,-4.211 4.001,-6.501 0.162,-1.195 0.146,-2.08 -0.036,-1.968 -0.181,0.112 -0.33,0.661 -0.33,1.22 0,1.652 -1.166,3.637 -3.863,6.576 -1.396,1.52 -2.537,2.962 -2.537,3.204 0,0.242 -1.061,2.626 -2.358,5.298 -6.032,12.432 -6.842,14.163 -6.842,14.621 0,0.269 -0.337,1.333 -0.748,2.364 -2.958,7.408 -3.314,11.687 -1.418,17.074 0.388,1.1 1.012,2.9 1.388,4 0.375,1.1 0.903,2.63 1.171,3.4 0.269,0.77 0.718,2.3 0.999,3.4 0.281,1.1 0.695,2.45 0.92,3 0.225,0.55 0.895,2.62 1.488,4.6 1.181,3.946 2.904,7.609 7.15,15.2 0.961,1.718 4.355,8.036 6.49,12.081 2.592,4.91 5.132,8.242 7.76,10.183 0.77,0.568 1.85,1.483 2.4,2.033 1.089,1.088 13.453,9.503 13.963,9.503 0.172,0 0.639,0.36 1.037,0.8 0.398,0.44 1.034,0.8 1.413,0.8 0.379,0 0.904,0.258 1.166,0.574 0.262,0.316 1.002,0.69 1.644,0.831 0.642,0.141 1.282,0.441 1.421,0.667 0.14,0.225 0.817,0.664 1.505,0.975 0.688,0.311 1.521,0.735 1.851,0.943 0.33,0.208 1.816,0.945 3.303,1.638 1.487,0.692 2.794,1.405 2.905,1.585 0.111,0.179 0.727,0.441 1.369,0.582 0.642,0.141 1.382,0.515 1.644,0.831 0.262,0.316 0.787,0.574 1.167,0.574 0.379,0 1.105,0.36 1.612,0.8 0.507,0.44 1.141,0.8 1.407,0.8 0.267,0 0.984,0.392 1.593,0.872 1.73,1.361 6.473,2.02 19.6,2.724 4.18,0.224 9.159,0.588 11.064,0.809 2.331,0.271 3.813,0.27 4.529,-0.002 l 1.064,-0.405 -0.856,-1.099 c -0.47,-0.604 -1.788,-1.769 -2.928,-2.589 -4.353,-3.128 -5.524,-3.91 -5.85,-3.91 -0.186,0 -0.426,-0.231 -0.535,-0.514 -0.108,-0.283 -0.982,-1.042 -1.942,-1.686 -0.961,-0.645 -2.054,-1.449 -2.43,-1.786 -0.377,-0.338 -1.148,-0.974 -1.714,-1.414 -0.566,-0.44 -1.698,-1.396 -2.515,-2.124 -0.818,-0.728 -1.982,-1.588 -2.587,-1.91 -0.605,-0.323 -1.1,-0.741 -1.1,-0.93 0,-0.188 -0.36,-0.437 -0.8,-0.552 -1.154,-0.302 -1.057,-1.468 0.1,-1.201 1.063,0.245 9.92,3.689 10.5,4.082 0.22,0.149 1.39,0.644 2.6,1.099 6.988,2.631 8.292,3.159 9.186,3.719 1.233,0.772 8.741,0.693 15.614,-0.166 2.53,-0.316 5.95,-0.684 7.6,-0.818 1.65,-0.134 4.26,-0.5 5.8,-0.812 1.54,-0.312 4.42,-0.755 6.4,-0.984 6.362,-0.735 7.207,-1.06 12,-4.616 2.42,-1.794 6.56,-4.866 9.2,-6.825 4.648,-3.449 5.953,-4.39 7.565,-5.456 0.421,-0.278 1.051,-0.745 1.4,-1.038 0.588,-0.491 4.525,-3.427 6.132,-4.572 4.265,-3.038 5.509,-4.056 7.692,-6.296 1.394,-1.43 3.947,-4.336 5.673,-6.458 1.726,-2.122 5.388,-6.607 8.138,-9.968 4.99,-6.099 5.744,-7.164 9.603,-13.574 3.362,-5.584 3.66,-6.067 5.798,-9.4 1.129,-1.76 2.178,-3.47 2.33,-3.8 0.153,-0.33 0.63,-1.14 1.061,-1.8 0.431,-0.66 1.081,-1.74 1.444,-2.4 0.363,-0.66 0.889,-1.47 1.167,-1.8 0.279,-0.33 0.991,-1.5 1.583,-2.6 0.591,-1.1 1.598,-2.81 2.238,-3.8 0.64,-0.99 1.287,-2.07 1.438,-2.4 0.356,-0.78 2.543,-4.568 3.425,-5.935 0.378,-0.586 0.97,-1.605 1.314,-2.265 0.345,-0.66 1.026,-1.857 1.513,-2.661 3.358,-5.536 3.165,-4.944 3.51,-10.739 0.177,-2.97 0.518,-7.904 0.758,-10.964 0.372,-4.723 0.345,-5.881 -0.173,-7.664 -0.336,-1.154 -0.777,-3.151 -0.982,-4.436 -0.742,-4.663 -2.03,-11.417 -2.244,-11.763 -0.12,-0.195 -0.482,-1.843 -0.804,-3.663 -0.814,-4.602 -2,-9.918 -2.478,-11.11 -0.221,-0.55 -0.531,-1.945 -0.689,-3.1 -0.158,-1.154 -0.45,-2.2 -0.649,-2.323 -0.417,-0.258 -0.481,-3.085 -0.113,-4.927 L 340.1,110 h 9.15 9.15 v -2.01 c 0,-1.713 -0.133,-2.062 -0.9,-2.363 -0.495,-0.194 -1.598,-0.999 -2.45,-1.79 -0.853,-0.79 -1.798,-1.437 -2.1,-1.437 -0.303,0 -0.55,-0.36 -0.55,-0.8 0,-0.533 -0.267,-0.8 -0.8,-0.8 -0.465,0 -0.8,-0.267 -0.8,-0.637 0,-0.351 -0.36,-0.732 -0.8,-0.847 -0.443,-0.116 -0.8,-0.546 -0.8,-0.963 0,-0.486 -0.283,-0.753 -0.8,-0.753 -0.465,0 -0.8,-0.267 -0.8,-0.637 0,-0.351 -0.36,-0.732 -0.8,-0.847 -0.44,-0.115 -0.8,-0.458 -0.8,-0.763 0,-0.304 -0.264,-0.553 -0.586,-0.553 -0.322,0 -0.778,-0.358 -1.012,-0.796 -0.234,-0.438 -0.556,-0.762 -0.714,-0.721 -0.667,0.174 -2.088,-0.581 -2.088,-1.11 0,-0.315 -0.339,-0.573 -0.753,-0.573 -0.417,0 -0.847,-0.357 -0.963,-0.8 -0.115,-0.44 -0.484,-0.8 -0.82,-0.8 -0.335,0 -0.724,-0.36 -0.864,-0.8 -0.189,-0.595 -0.605,-0.8 -1.627,-0.8 -0.907,0 -1.373,-0.189 -1.373,-0.557 0,-0.638 -0.849,-1.043 -2.186,-1.043 -0.584,0 -0.997,-0.292 -1.13,-0.8 -0.159,-0.606 -0.546,-0.8 -1.6,-0.8 -1.054,0 -1.441,-0.194 -1.6,-0.8 -0.16,-0.613 -0.546,-0.8 -1.647,-0.8 -1.011,0 -1.437,-0.178 -1.437,-0.6 0,-0.666 -0.269,-0.721 -4,-0.815 -2.389,-0.06 -4.968,-0.377 -11.4,-1.403 -1.32,-0.21 -3.93,-0.572 -5.8,-0.803 -1.87,-0.232 -4.956,-0.682 -6.857,-1 -3.69,-0.618 -7.811,-0.679 -10.743,-0.16 M 394.916,118.8 c -0.125,0.478 -0.552,0.805 -1.063,0.813 -2.482,0.037 -3.192,2.738 -0.753,2.866 2.901,0.152 5.104,-0.125 5.544,-0.7 0.244,-0.318 0.649,-0.579 0.9,-0.579 0.265,0 0.456,-0.669 0.456,-1.6 V 118 h -2.437 c -2.101,0 -2.467,0.11 -2.647,0.8 M 186.6,138.033 c -0.66,0.2 -2.82,0.553 -4.8,0.785 -1.98,0.232 -4.397,0.683 -5.371,1.002 -0.974,0.319 -2.144,0.577 -2.6,0.574 -0.456,-0.003 -1.999,0.346 -3.429,0.776 -5.434,1.633 -8.641,2.433 -9.8,2.445 -0.66,0.007 -1.92,0.36 -2.8,0.785 -0.88,0.425 -1.821,0.779 -2.09,0.786 -0.27,0.008 -1.08,0.373 -1.8,0.813 -0.721,0.439 -1.566,0.799 -1.879,0.8 -0.312,0 -0.852,0.245 -1.2,0.543 -0.534,0.459 -3.104,1.86 -5.715,3.116 -0.376,0.181 -0.961,0.223 -1.3,0.093 -0.339,-0.13 -0.616,-0.057 -0.616,0.163 0,0.983 1.446,0.771 3.924,-0.573 6.451,-3.501 8.557,-4.541 9.195,-4.543 0.375,-0.002 1.221,-0.289 1.881,-0.638 0.66,-0.349 2.356,-0.801 3.769,-1.005 1.413,-0.204 2.763,-0.531 3,-0.727 0.237,-0.196 1.151,-0.478 2.031,-0.627 0.88,-0.148 2.636,-0.615 3.902,-1.036 1.265,-0.421 2.756,-0.765 3.312,-0.765 0.557,0 1.617,-0.253 2.357,-0.562 0.739,-0.309 2.758,-0.678 4.487,-0.82 1.728,-0.142 4.402,-0.513 5.942,-0.824 1.54,-0.311 3.43,-0.633 4.2,-0.716 0.771,-0.082 0.322,-0.163 -1,-0.18 -1.32,-0.016 -2.94,0.134 -3.6,0.335 m -90.811,31.716 c -0.434,0.302 -1.419,0.685 -2.189,0.851 -0.77,0.166 -1.755,0.549 -2.189,0.851 -0.434,0.302 -1.293,0.549 -1.909,0.549 -1.303,0 -3.96,2.266 -5.748,4.902 -0.633,0.934 -1.245,1.788 -1.36,1.898 -0.345,0.332 -10.907,14.359 -12.155,16.142 -1.76,2.515 -2.211,3.894 -2.845,8.702 -0.32,2.427 -0.667,4.551 -0.772,4.72 -0.105,0.17 -0.39,2.002 -0.634,4.072 -0.245,2.07 -0.702,4.652 -1.016,5.737 -0.845,2.913 -0.823,23.577 0.026,25.719 0.329,0.829 0.771,2.318 0.982,3.308 0.574,2.691 1.564,6.444 2.057,7.8 0.24,0.66 0.681,2.28 0.979,3.6 1.443,6.377 3.389,13.818 4.291,16.4 0.604,1.731 0.426,1.621 12.893,7.961 4.15,2.11 8.46,4.351 9.8,5.094 0.33,0.184 1.23,0.665 2,1.07 0.77,0.406 2.796,1.488 4.501,2.406 1.706,0.918 3.191,1.669 3.3,1.669 0.393,0 0.189,-2.359 -0.226,-2.615 -0.233,-0.145 -0.59,-0.65 -0.793,-1.124 -0.202,-0.473 -0.822,-1.581 -1.378,-2.461 -0.555,-0.88 -1.29,-2.14 -1.634,-2.8 -0.344,-0.66 -1.018,-1.864 -1.497,-2.675 -0.48,-0.811 -1.83,-3.151 -3,-5.2 -1.17,-2.049 -2.282,-3.995 -2.472,-4.325 -0.189,-0.33 -1.354,-2.58 -2.587,-5 -1.234,-2.42 -2.397,-4.67 -2.586,-5 -0.188,-0.33 -0.54,-1.05 -0.782,-1.6 -0.242,-0.55 -0.595,-1.27 -0.784,-1.6 -0.189,-0.33 -0.774,-1.5 -1.3,-2.6 -0.526,-1.1 -1.194,-2.297 -1.485,-2.66 -0.715,-0.893 -1.615,-4.229 -2.25,-8.34 -0.288,-1.87 -0.81,-4.93 -1.159,-6.8 -1.064,-5.7 -1.509,-8.813 -1.889,-13.2 -0.201,-2.31 -0.659,-7.597 -1.019,-11.748 -0.969,-11.162 -0.628,-12.276 6.96,-22.752 2.358,-3.256 3.992,-5.599 10.071,-14.444 3.702,-5.386 3.585,-9.142 -0.202,-6.507"
       stroke="none"
       fill="#63ac7c"
       fill-rule="evenodd" /><path
       id="path2-6"
       d="m 327.6,81 c -0.405,0.488 -0.385,0.6 0.108,0.6 0.334,0 0.71,-0.27 0.837,-0.6 0.126,-0.33 0.078,-0.6 -0.109,-0.6 -0.186,0 -0.562,0.27 -0.836,0.6 M 90,85.2 c 0,2.933 -0.067,3.2 -0.8,3.2 -0.732,0 -0.8,0.267 -0.8,3.153 0,2.817 -0.085,3.176 -0.8,3.363 -0.668,0.175 -0.8,0.546 -0.8,2.247 0,1.77 -0.105,2.037 -0.8,2.037 -0.658,0 -0.8,0.267 -0.8,1.504 0,1.07 -0.23,1.647 -0.8,2.003 -0.626,0.391 -0.8,0.933 -0.8,2.496 0,1.73 -0.107,1.997 -0.8,1.997 -0.663,0 -0.8,0.267 -0.8,1.553 0,1.217 -0.173,1.599 -0.8,1.763 -0.652,0.171 -0.8,0.546 -0.8,2.032 0,1.414 -0.18,1.92 -0.8,2.252 -0.564,0.302 -0.8,0.838 -0.8,1.814 0,0.918 -0.188,1.386 -0.557,1.386 -0.645,0 -1.043,0.852 -1.043,2.233 0,0.553 -0.235,0.967 -0.549,0.967 -0.331,0 -0.65,0.635 -0.805,1.6 -0.165,1.035 -0.466,1.6 -0.851,1.6 -0.327,0 -0.595,0.339 -0.595,0.753 0,0.417 -0.357,0.847 -0.8,0.963 -0.574,0.15 -0.8,0.546 -0.8,1.4 0,0.854 -0.226,1.25 -0.8,1.4 -0.44,0.115 -0.8,0.546 -0.8,0.958 0,0.411 -0.36,1.056 -0.8,1.433 -0.44,0.377 -0.8,1.047 -0.8,1.489 0,0.537 -0.265,0.804 -0.8,0.804 -0.667,0 -0.8,0.267 -0.8,1.6 0,1.333 -0.133,1.6 -0.8,1.6 -0.517,0 -0.8,0.267 -0.8,0.753 0,0.417 -0.357,0.847 -0.8,0.963 -0.613,0.16 -0.8,0.546 -0.8,1.647 0,1.17 -0.148,1.437 -0.8,1.437 -0.533,0 -0.8,0.267 -0.8,0.8 0,0.44 -0.262,0.8 -0.582,0.8 -0.348,0 -0.687,0.562 -0.844,1.4 -0.145,0.77 -0.494,1.4 -0.776,1.4 -0.604,0 -0.998,0.882 -0.998,2.233 0,0.554 -0.235,0.967 -0.55,0.967 -0.38,0 -0.609,0.697 -0.737,2.249 -0.128,1.535 -0.397,2.366 -0.85,2.62 -0.516,0.289 -0.663,0.975 -0.663,3.104 0,2.397 -0.098,2.759 -0.8,2.943 -0.678,0.177 -0.8,0.546 -0.8,2.42 0,1.859 -0.127,2.25 -0.8,2.464 -0.705,0.224 -0.8,0.605 -0.8,3.227 0,2.706 -0.072,2.973 -0.8,2.973 -0.658,0 -0.8,-0.267 -0.8,-1.504 0,-1.07 -0.23,-1.647 -0.8,-2.003 -0.611,-0.382 -0.8,-0.933 -0.8,-2.334 0,-1.497 -0.147,-1.872 -0.8,-2.043 -0.626,-0.164 -0.8,-0.546 -0.8,-1.759 0,-1.117 -0.224,-1.69 -0.8,-2.05 -0.597,-0.372 -0.8,-0.933 -0.8,-2.203 0,-1.437 -0.125,-1.704 -0.8,-1.704 -0.667,0 -0.8,-0.267 -0.8,-1.6 0,-1.067 -0.267,-1.867 -0.8,-2.4 -0.626,-0.626 -0.8,-1.333 -0.8,-3.247 v -2.446 l -2.648,0.168 c -1.733,0.111 -2.805,0.378 -3.1,0.772 -0.249,0.331 -0.769,0.721 -1.156,0.867 -0.387,0.145 -0.68,0.404 -0.652,0.575 0.144,0.877 -0.119,1.217 -0.803,1.038 -0.714,-0.187 -0.761,0.103 -0.806,4.937 -0.043,4.641 -0.125,5.189 -0.842,5.685 -0.724,0.501 -0.793,1.014 -0.793,5.9 0,4.378 -0.104,5.351 -0.573,5.351 -0.539,0 -1.129,1.104 -0.993,1.859 0.498,2.784 -0.126,10.472 -0.866,10.665 -0.576,0.151 -0.809,0.505 -0.756,1.147 0.404,4.89 -0.081,32.769 -0.563,32.37 -0.436,-0.362 -0.602,-0.268 -0.795,0.451 -0.601,2.244 -0.089,6.308 0.796,6.308 0.403,0 0.55,0.616 0.55,2.304 0,1.87 0.15,2.398 0.8,2.803 0.668,0.418 0.8,0.933 0.8,3.134 0,2.297 0.102,2.661 0.8,2.843 0.704,0.184 0.8,0.546 0.8,3 0,2.454 0.096,2.816 0.8,3 0.677,0.177 0.8,0.546 0.8,2.399 0,1.686 0.181,2.341 0.788,2.853 0.613,0.516 0.806,1.232 0.868,3.219 0.065,2.101 0.21,2.589 0.812,2.747 0.594,0.155 0.732,0.593 0.732,2.318 0,1.775 0.132,2.168 0.8,2.38 0.595,0.189 0.8,0.605 0.8,1.627 0,1.106 0.155,1.373 0.8,1.373 0.704,0 0.8,0.267 0.8,2.213 0,1.546 0.172,2.278 0.57,2.431 0.314,0.12 0.69,0.925 0.835,1.787 0.162,0.96 0.485,1.569 0.83,1.569 0.522,0 0.748,0.507 0.599,1.341 -0.136,0.755 0.454,1.859 0.993,1.859 0.386,0 0.573,0.448 0.573,1.373 0,1.022 0.205,1.438 0.8,1.627 0.595,0.189 0.8,0.605 0.8,1.627 0,1.106 0.155,1.373 0.8,1.373 0.667,0 0.8,0.267 0.8,1.6 0,1.333 0.133,1.6 0.8,1.6 0.652,0 0.8,0.267 0.8,1.437 0,1.101 0.187,1.487 0.8,1.647 0.597,0.156 0.8,0.546 0.8,1.536 0,0.975 0.212,1.393 0.8,1.58 0.44,0.14 0.8,0.602 0.8,1.027 0,0.425 0.36,1.133 0.8,1.573 0.44,0.44 0.8,1.087 0.8,1.437 0,0.351 0.36,0.732 0.8,0.847 0.601,0.157 0.8,0.546 0.8,1.563 0,1.086 0.158,1.353 0.8,1.353 0.505,0 0.8,0.267 0.8,0.724 0,0.397 0.264,1.072 0.587,1.5 0.323,0.427 0.593,1.108 0.6,1.513 0.007,0.406 0.373,0.832 0.813,0.947 0.443,0.116 0.8,0.546 0.8,0.963 0,0.414 0.191,0.753 0.424,0.753 0.233,0 0.32,0.168 0.193,0.372 -0.126,0.205 -0.019,0.503 0.238,0.662 0.282,0.174 0.362,0.117 0.2,-0.145 -0.147,-0.238 -0.085,-0.547 0.138,-0.685 0.248,-0.153 0.407,0.322 0.407,1.21 0,1.116 0.186,1.509 0.787,1.667 0.432,0.113 0.895,0.546 1.027,0.962 0.132,0.416 0.498,0.757 0.813,0.757 0.556,0 0.741,0.655 0.594,2.1 -0.047,0.463 0.208,0.7 0.754,0.7 0.558,0 0.825,0.259 0.825,0.8 0,0.533 0.267,0.8 0.8,0.8 0.533,0 0.8,0.267 0.8,0.8 0,0.533 0.267,0.8 0.8,0.8 0.619,0 0.8,0.267 0.8,1.176 0,1.277 0.57,1.92 1.034,1.169 0.193,-0.312 0.115,-0.361 -0.234,-0.145 -0.346,0.214 -0.427,0.167 -0.238,-0.138 0.42,-0.68 1.162,-0.563 0.892,0.141 -0.334,0.872 0.42,2.597 1.136,2.597 0.343,0 0.61,0.35 0.61,0.8 0,0.533 0.267,0.8 0.8,0.8 0.533,0 0.8,0.267 0.8,0.8 0,0.44 0.258,0.8 0.573,0.8 0.315,0 0.687,0.36 0.827,0.8 0.14,0.44 0.512,0.8 0.827,0.8 0.315,0 0.573,0.258 0.573,0.573 0,0.315 0.36,0.687 0.8,0.827 0.44,0.14 0.8,0.5 0.8,0.8 0,0.3 0.36,0.66 0.8,0.8 0.44,0.14 0.8,0.512 0.8,0.827 0,0.54 0.913,0.774 2.5,0.641 0.79,-0.066 0.939,0.537 0.238,0.97 -0.305,0.189 -0.352,0.108 -0.138,-0.238 0.216,-0.349 0.167,-0.427 -0.145,-0.234 -0.751,0.464 -0.108,1.034 1.169,1.034 0.909,0 1.176,0.181 1.176,0.8 0,0.533 0.267,0.8 0.8,0.8 0.533,0 0.8,0.267 0.8,0.8 0,0.497 0.267,0.8 0.704,0.8 0.387,0 0.928,0.36 1.203,0.8 0.277,0.443 0.933,0.8 1.469,0.8 0.619,0 1.062,0.29 1.224,0.8 0.14,0.44 0.581,0.8 0.98,0.8 0.4,0 0.821,0.36 0.936,0.8 0.138,0.528 0.546,0.8 1.198,0.8 1.022,0 2.079,0.874 1.616,1.337 -0.145,0.145 0.127,0.263 0.603,0.263 0.477,0 0.867,0.251 0.867,0.557 0,0.645 0.852,1.043 2.233,1.043 0.56,0 0.967,0.235 0.967,0.557 0,0.638 0.849,1.043 2.186,1.043 0.584,0 0.997,0.292 1.13,0.8 0.16,0.613 0.546,0.8 1.647,0.8 1.011,0 1.437,0.178 1.437,0.6 0,0.415 0.417,0.6 1.353,0.6 1.017,0 1.406,0.199 1.563,0.8 0.16,0.613 0.546,0.8 1.647,0.8 1.17,0 1.437,0.148 1.437,0.8 0,0.667 0.267,0.8 1.6,0.8 1.333,0 1.6,0.133 1.6,0.8 0,0.667 0.267,0.8 1.6,0.8 1.333,0 1.6,0.133 1.6,0.8 0,0.667 0.267,0.8 1.6,0.8 1.101,0 1.6,0.174 1.6,0.557 0,0.635 0.849,1.043 2.171,1.043 0.498,0 1.231,0.36 1.629,0.8 0.507,0.56 1.232,0.8 2.418,0.8 1.367,0 1.682,0.135 1.638,0.7 -0.042,0.523 0.297,0.731 1.344,0.822 0.77,0.068 1.619,0.409 1.886,0.758 0.284,0.371 1.324,0.715 2.5,0.828 1.256,0.121 2.014,0.384 2.014,0.7 0,0.602 0.888,0.992 2.261,0.992 0.548,0 1.266,0.27 1.596,0.6 0.353,0.353 1.33,0.6 2.372,0.6 1.247,0 1.771,0.165 1.771,0.557 0,0.793 0.907,1.043 3.788,1.043 2.157,0 2.515,0.101 2.468,0.7 -0.052,0.653 0.924,0.707 14.599,0.805 14.243,0.102 14.66,0.127 14.862,0.9 0.327,1.248 27.41,1.244 28.19,-0.005 0.452,-0.723 0.952,-0.803 5.196,-0.832 2.584,-0.017 4.472,-0.122 4.197,-0.233 -2.087,-0.842 -0.264,-1.335 4.937,-1.335 5.101,0 5.451,-0.049 5.647,-0.8 0.194,-0.74 0.546,-0.8 4.72,-0.8 3.64,0 4.555,-0.116 4.741,-0.6 0.183,-0.478 1.041,-0.6 4.21,-0.6 4.312,0 5.245,-0.185 5.245,-1.043 0,-0.437 0.819,-0.557 3.8,-0.557 3.533,0 3.8,-0.056 3.8,-0.8 0,-0.652 0.267,-0.8 1.437,-0.8 1.101,0 1.487,-0.187 1.647,-0.8 0.115,-0.44 0.52,-0.8 0.901,-0.8 0.38,0 1.017,-0.36 1.415,-0.8 0.398,-0.44 1.146,-0.8 1.662,-0.8 0.671,0 0.938,-0.227 0.938,-0.8 0,-0.62 0.267,-0.8 1.186,-0.8 0.776,0 1.334,-0.276 1.614,-0.8 0.235,-0.44 0.782,-0.8 1.214,-0.8 0.519,0 0.786,-0.271 0.786,-0.8 0,-0.648 0.267,-0.8 1.4,-0.8 1.133,0 1.4,-0.152 1.4,-0.8 0,-0.533 0.267,-0.8 0.8,-0.8 0.533,0 0.8,-0.267 0.8,-0.8 0,-0.667 0.267,-0.8 1.6,-0.8 1.156,0 1.6,-0.167 1.6,-0.6 0,-0.333 0.356,-0.6 0.8,-0.6 0.44,0 0.8,-0.263 0.8,-0.585 0,-0.343 0.66,-0.762 1.6,-1.015 0.94,-0.253 1.6,-0.672 1.6,-1.015 0,-0.322 0.339,-0.585 0.753,-0.585 0.417,0 0.847,-0.357 0.963,-0.8 0.154,-0.589 0.546,-0.8 1.484,-0.8 0.938,0 1.33,-0.211 1.484,-0.8 0.15,-0.574 0.546,-0.8 1.4,-0.8 0.854,0 1.25,-0.226 1.4,-0.8 0.116,-0.443 0.546,-0.8 0.963,-0.8 0.486,0 0.753,-0.283 0.753,-0.8 0,-0.667 0.267,-0.8 1.6,-0.8 1.333,0 1.6,-0.133 1.6,-0.8 0,-0.533 0.267,-0.8 0.8,-0.8 0.533,0 0.8,-0.267 0.8,-0.8 0,-0.667 0.267,-0.8 1.6,-0.8 1.333,0 1.6,-0.133 1.6,-0.8 0,-0.586 0.267,-0.8 0.997,-0.8 0.563,0 1.213,-0.348 1.496,-0.8 0.275,-0.44 0.735,-0.8 1.024,-0.8 0.288,0 0.778,-0.608 1.089,-1.351 0.31,-0.744 0.841,-1.458 1.179,-1.588 0.338,-0.13 0.615,-0.512 0.615,-0.848 0,-0.337 0.27,-0.613 0.6,-0.613 0.333,0 0.6,-0.356 0.6,-0.8 0,-0.533 0.267,-0.8 0.8,-0.8 0.533,0 0.8,-0.267 0.8,-0.8 0,-0.533 0.267,-0.8 0.8,-0.8 0.533,0 0.8,-0.267 0.8,-0.8 0,-0.533 0.267,-0.8 0.8,-0.8 0.533,0 0.8,-0.267 0.8,-0.8 0,-0.533 0.267,-0.8 0.8,-0.8 0.533,0 0.8,-0.267 0.8,-0.8 0,-0.533 0.267,-0.8 0.8,-0.8 0.517,0 0.8,-0.267 0.8,-0.753 0,-0.417 0.357,-0.847 0.8,-0.963 0.44,-0.115 0.8,-0.496 0.8,-0.847 0,-0.35 0.189,-0.637 0.421,-0.637 0.231,0 0.61,-0.544 0.842,-1.208 0.232,-0.665 0.762,-1.391 1.179,-1.615 0.417,-0.223 0.758,-0.648 0.758,-0.944 0,-0.297 0.36,-0.634 0.8,-0.749 0.44,-0.115 0.8,-0.475 0.8,-0.8 0,-0.325 0.36,-0.685 0.8,-0.8 0.44,-0.115 0.8,-0.496 0.8,-0.847 0,-0.35 0.27,-0.637 0.6,-0.637 0.333,0 0.6,-0.356 0.6,-0.8 0,-0.533 0.267,-0.8 0.8,-0.8 0.533,0 0.8,-0.267 0.8,-0.8 0,-0.533 0.267,-0.8 0.8,-0.8 0.533,0 0.8,-0.267 0.8,-0.8 0,-0.533 0.267,-0.8 0.8,-0.8 0.533,0 0.8,-0.267 0.8,-0.8 0,-0.849 0.27,-0.919 3.1,-0.807 1.444,0.057 1.7,-0.05 1.7,-0.716 0,-0.447 0.343,-0.874 0.8,-0.993 0.58,-0.152 0.8,-0.546 0.8,-1.432 0,-0.814 0.268,-1.367 0.8,-1.652 0.527,-0.282 0.8,-0.838 0.8,-1.627 0,-0.686 0.252,-1.295 0.589,-1.424 0.324,-0.125 0.702,-0.826 0.839,-1.56 0.138,-0.733 0.493,-1.427 0.789,-1.54 0.296,-0.114 0.656,-0.834 0.8,-1.6 0.144,-0.767 0.514,-1.49 0.822,-1.609 0.324,-0.124 0.561,-0.771 0.561,-1.531 0,-0.883 0.263,-1.481 0.8,-1.816 0.533,-0.333 0.8,-0.933 0.8,-1.8 0,-0.867 0.267,-1.467 0.8,-1.8 0.51,-0.318 0.8,-0.933 0.8,-1.693 0,-0.76 0.29,-1.375 0.8,-1.693 0.57,-0.356 0.8,-0.933 0.8,-2.003 0,-1.237 0.142,-1.504 0.8,-1.504 0.667,0 0.8,-0.267 0.8,-1.6 0,-1.333 0.133,-1.6 0.8,-1.6 0.667,0 0.8,-0.267 0.8,-1.6 0,-1.333 0.133,-1.6 0.8,-1.6 0.667,0 0.8,-0.267 0.8,-1.6 0,-1.333 0.133,-1.6 0.8,-1.6 0.636,0 0.8,-0.267 0.8,-1.304 0,-0.87 0.266,-1.47 0.8,-1.803 0.51,-0.319 0.8,-0.933 0.8,-1.696 0,-0.793 0.201,-1.197 0.595,-1.197 0.385,0 0.686,-0.565 0.851,-1.6 0.155,-0.965 0.474,-1.6 0.805,-1.6 0.374,0 0.549,-0.511 0.549,-1.6 0,-1.333 0.133,-1.6 0.8,-1.6 0.766,0 0.8,-0.267 0.8,-6.2 0,-5.667 0.069,-6.269 0.8,-7 0.745,-0.745 0.8,-1.333 0.8,-8.6 0,-7.267 0.055,-7.855 0.8,-8.6 1.41,-1.41 1.175,-30 -0.247,-30 -0.451,0 -0.553,-1.364 -0.553,-7.384 0,-7.082 -0.036,-7.418 -0.875,-8.2 -1.846,-1.72 -2.18,-1.223 -2.478,3.684 -0.15,2.475 -0.613,5.85 -1.027,7.5 -0.415,1.65 -0.937,4.17 -1.16,5.6 -0.224,1.43 -0.595,3.59 -0.825,4.8 -0.23,1.21 -0.795,4.45 -1.257,7.2 -0.462,2.75 -1.009,5.9 -1.215,7 -0.207,1.1 -0.641,3.44 -0.967,5.2 -0.684,3.703 -1.454,5.65 -3.285,8.296 -0.721,1.043 -1.311,2.033 -1.312,2.2 0,0.167 -0.685,1.294 -1.522,2.504 -1.669,2.412 -2.739,4.346 -4.095,7.4 -0.489,1.1 -1.584,3.46 -2.435,5.245 -0.851,1.785 -1.547,3.364 -1.547,3.508 0,0.145 -0.734,1.835 -1.632,3.755 -0.898,1.921 -1.87,4.032 -2.162,4.692 -4.99,11.31 -5.505,12.205 -8.664,15.05 -1.618,1.457 -3.865,3.527 -4.994,4.6 -1.129,1.072 -2.749,2.576 -3.6,3.34 -0.851,0.765 -2.729,2.475 -4.172,3.8 -1.443,1.326 -4.224,3.85 -6.181,5.61 -1.958,1.76 -4.391,4.01 -5.409,5 -1.017,0.99 -2.645,2.499 -3.618,3.353 -2.218,1.948 -8.095,7.283 -9.648,8.758 -2.115,2.008 -3.705,2.957 -11.637,6.943 -5.997,3.013 -8.267,4.072 -9.744,4.543 -0.626,0.199 -2.399,0.834 -3.939,1.41 -1.54,0.576 -3.928,1.296 -5.307,1.601 -1.378,0.304 -2.68,0.661 -2.893,0.792 -0.213,0.132 -1.965,0.488 -3.894,0.792 -8.221,1.294 -14.493,2.957 -17.506,4.642 -2.367,1.324 -8.55,2.668 -14.6,3.175 -2.31,0.193 -5.64,0.579 -7.4,0.856 -5.547,0.874 -43.234,0.735 -44.88,-0.165 -0.704,-0.385 -1.604,-0.697 -2,-0.694 -0.396,0.003 -1.98,-0.37 -3.52,-0.828 -1.54,-0.459 -4.06,-1.195 -5.6,-1.637 -1.54,-0.442 -3.7,-1.084 -4.8,-1.427 -1.1,-0.344 -2.99,-0.853 -4.2,-1.132 -2.096,-0.483 -4.416,-1.12 -10.903,-2.994 -1.593,-0.461 -3.887,-1.089 -5.097,-1.397 -6.781,-1.727 -6.896,-1.786 -10.654,-5.448 -7.649,-7.452 -10.052,-9.691 -12.749,-11.874 -3.754,-3.039 -5.254,-4.069 -5.927,-4.069 -0.309,0 -0.991,-0.322 -1.516,-0.716 -0.525,-0.394 -1.404,-0.932 -1.954,-1.197 -0.55,-0.265 -1.27,-0.639 -1.6,-0.831 -0.926,-0.541 -5.115,-2.673 -8,-4.072 -1.43,-0.694 -2.87,-1.428 -3.2,-1.631 -0.33,-0.203 -1.173,-0.633 -1.873,-0.955 -0.7,-0.322 -1.377,-0.755 -1.504,-0.961 -0.128,-0.207 -0.758,-0.491 -1.4,-0.632 -0.642,-0.141 -1.368,-0.497 -1.612,-0.791 -0.244,-0.295 -0.879,-0.645 -1.41,-0.778 -2.169,-0.544 -4.331,-3.936 -4.8,-7.527 -0.136,-1.04 -0.406,-1.989 -0.601,-2.109 -0.195,-0.12 -0.467,-1.069 -0.606,-2.109 -0.139,-1.04 -0.6,-2.734 -1.024,-3.765 -0.423,-1.031 -0.77,-2.427 -0.77,-3.102 0,-0.675 -0.36,-1.899 -0.8,-2.72 -0.44,-0.82 -0.8,-2.176 -0.8,-3.012 0,-0.836 -0.269,-1.931 -0.598,-2.432 -0.328,-0.502 -0.71,-1.8 -0.847,-2.886 -0.138,-1.086 -0.544,-2.424 -0.903,-2.974 -1.38,-2.117 -1.292,-27.119 0.112,-31.592 0.312,-0.994 0.683,-3.233 0.825,-4.975 0.141,-1.742 0.516,-3.789 0.834,-4.549 0.317,-0.76 0.577,-2.428 0.577,-3.707 0,-2.385 0.295,-3.405 1.506,-5.213 0.382,-0.57 1.164,-1.741 1.738,-2.603 0.966,-1.451 2.075,-2.859 3.556,-4.516 0.33,-0.37 1.138,-1.476 1.797,-2.458 0.658,-0.983 1.708,-2.347 2.335,-3.031 0.626,-0.684 1.348,-1.604 1.603,-2.043 3.982,-6.845 7.381,-9.811 12.924,-11.277 0.693,-0.183 1.678,-0.626 2.189,-0.985 0.512,-0.358 1.349,-0.651 1.861,-0.651 0.512,0 1.464,-0.276 2.116,-0.613 1.459,-0.754 2.194,0.53 1.764,3.08 -0.156,0.921 -0.01,2.343 0.376,3.671 0.346,1.192 0.826,3.579 1.066,5.304 0.24,1.725 0.586,3.417 0.77,3.759 0.183,0.343 0.518,1.878 0.745,3.411 0.482,3.263 1.406,8.117 2.244,11.788 0.326,1.43 0.785,3.846 1.02,5.368 0.235,1.523 0.518,2.916 0.629,3.096 0.186,0.299 0.859,3.872 2.394,12.687 0.321,1.843 0.684,3.515 0.808,3.715 0.123,0.2 0.466,1.859 0.762,3.686 1.028,6.351 1.457,7.281 5.501,11.927 2.033,2.336 4.776,5.543 6.096,7.127 1.32,1.584 2.85,3.367 3.4,3.963 1.412,1.528 2.828,3.215 4.059,4.837 1.479,1.949 3.362,3.994 3.677,3.994 0.557,0 0.229,-1.537 -0.536,-2.509 -0.44,-0.56 -0.8,-1.385 -0.8,-1.834 0,-0.45 -0.251,-0.961 -0.557,-1.137 -0.306,-0.176 -0.843,-0.95 -1.192,-1.72 -0.349,-0.77 -0.819,-1.715 -1.043,-2.1 -0.996,-1.708 -1.242,-2.159 -1.695,-3.1 -0.265,-0.55 -0.803,-1.429 -1.197,-1.954 -0.394,-0.525 -0.716,-1.27 -0.716,-1.657 0,-0.387 -0.27,-0.807 -0.6,-0.934 -0.33,-0.126 -0.6,-0.571 -0.6,-0.989 0,-0.417 -0.349,-1.202 -0.775,-1.744 -0.427,-0.542 -0.893,-1.453 -1.036,-2.025 -0.144,-0.571 -0.498,-1.13 -0.787,-1.241 -0.29,-0.111 -0.645,-0.742 -0.79,-1.401 -0.145,-0.66 -0.522,-1.414 -0.838,-1.676 -0.316,-0.262 -0.574,-0.906 -0.574,-1.429 0,-0.524 -0.36,-1.625 -0.8,-2.446 -0.44,-0.82 -0.8,-1.947 -0.8,-2.504 0,-0.557 -0.36,-1.684 -0.8,-2.504 -0.44,-0.821 -0.8,-2.034 -0.8,-2.696 0,-0.662 -0.36,-1.875 -0.8,-2.696 -0.44,-0.82 -0.8,-2.021 -0.8,-2.667 0,-0.646 -0.285,-1.489 -0.634,-1.874 -0.349,-0.386 -0.732,-1.48 -0.852,-2.432 -0.121,-0.952 -0.471,-2.021 -0.779,-2.376 -0.308,-0.355 -0.67,-1.575 -0.804,-2.712 -0.135,-1.136 -0.4,-2.162 -0.588,-2.278 -0.444,-0.275 -0.446,-2.054 -0.002,-2.329 0.187,-0.115 0.451,-1.392 0.586,-2.836 0.135,-1.444 0.521,-3.02 0.859,-3.502 0.338,-0.482 0.614,-1.334 0.614,-1.893 0,-0.559 0.36,-1.689 0.8,-2.509 0.44,-0.821 0.8,-1.916 0.8,-2.433 0,-0.516 0.36,-1.265 0.8,-1.663 0.44,-0.398 0.8,-1.119 0.8,-1.601 0,-0.482 0.36,-1.292 0.8,-1.799 0.44,-0.507 0.8,-1.242 0.8,-1.633 0,-0.39 0.261,-0.971 0.58,-1.29 0.319,-0.319 0.704,-1.097 0.854,-1.729 0.15,-0.631 0.498,-1.418 0.772,-1.748 0.275,-0.33 0.632,-1.05 0.794,-1.6 0.162,-0.55 0.521,-1.27 0.797,-1.6 0.276,-0.33 0.719,-1.275 0.983,-2.1 0.265,-0.825 0.634,-1.5 0.819,-1.5 0.186,0 0.451,-0.519 0.591,-1.154 0.139,-0.635 1.15,-2.06 2.246,-3.168 1.928,-1.948 3.964,-5.16 3.964,-6.253 0,-0.294 0.269,-1.049 0.598,-1.679 1.02,-1.957 0.859,-12.01 -0.198,-12.346 -0.726,-0.23 -0.8,-0.605 -0.8,-4.027 0,-3.506 -0.057,-3.773 -0.8,-3.773 -0.741,0 -0.8,-0.267 -0.8,-3.637 0,-3.301 -0.074,-3.657 -0.8,-3.847 -0.715,-0.187 -0.8,-0.546 -0.8,-3.363 0,-2.886 -0.068,-3.153 -0.8,-3.153 -0.733,0 -0.8,-0.267 -0.8,-3.2 0,-2.578 -0.117,-3.2 -0.6,-3.2 -0.476,0 -0.6,-0.577 -0.6,-2.797 0,-2.363 -0.124,-2.874 -0.8,-3.296 -0.635,-0.397 -0.8,-0.933 -0.8,-2.603 0,-1.837 -0.101,-2.104 -0.8,-2.104 -0.877,0 -1.068,-0.587 -0.338,-1.038 0.286,-0.177 0.353,-0.11 0.176,0.176 -0.157,0.254 -0.095,0.462 0.138,0.462 0.233,0 0.424,-0.27 0.424,-0.6 0,-0.33 -0.27,-0.6 -0.6,-0.6 -0.33,0 -0.6,-0.287 -0.6,-0.637 0,-0.351 -0.36,-0.732 -0.8,-0.847 -0.443,-0.116 -0.8,-0.546 -0.8,-0.963 0,-0.486 -0.283,-0.753 -0.8,-0.753 -0.533,0 -0.8,-0.267 -0.8,-0.8 0,-0.533 -0.267,-0.8 -0.8,-0.8 -0.497,0 -0.8,-0.267 -0.8,-0.704 0,-0.387 -0.36,-0.928 -0.8,-1.203 -0.44,-0.275 -0.8,-0.864 -0.8,-1.309 0,-0.445 -0.284,-0.918 -0.631,-1.051 -0.346,-0.133 -0.792,-0.668 -0.99,-1.188 -0.197,-0.52 -0.634,-0.945 -0.969,-0.945 -0.336,0 -0.61,-0.258 -0.61,-0.573 0,-0.315 -0.36,-0.687 -0.8,-0.827 -0.44,-0.14 -0.8,-0.512 -0.8,-0.827 0,-0.315 -0.36,-0.573 -0.8,-0.573 -0.514,0 -0.8,-0.267 -0.8,-0.746 0,-0.41 -0.36,-1.204 -0.8,-1.763 -0.44,-0.56 -0.8,-1.304 -0.8,-1.654 0,-0.357 -0.331,-0.637 -0.753,-0.637 -0.417,0 -0.847,-0.357 -0.963,-0.8 -0.174,-0.665 -0.546,-0.8 -2.2,-0.8 -1.654,0 -2.026,-0.135 -2.2,-0.8 -0.178,-0.68 -0.546,-0.8 -2.447,-0.8 C 96.267,83.6 96,83.505 96,82.8 96,82.071 95.733,82 93,82 h -3 v 3.2 m 116.8,3.546 c 0,0.264 -0.405,0.643 -0.9,0.842 -0.609,0.244 -0.69,0.369 -0.249,0.387 0.74,0.028 1.796,-1.061 1.406,-1.451 -0.141,-0.142 -0.257,-0.042 -0.257,0.222 m -13.4,28.858 c -0.66,0.201 -2.642,0.696 -4.405,1.099 -1.763,0.403 -3.397,0.851 -3.632,0.996 -0.234,0.145 -1.672,0.462 -3.195,0.703 -1.522,0.242 -3.539,0.701 -4.482,1.019 -0.943,0.318 -2.259,0.579 -2.926,0.579 -3.363,0 -14.519,9.593 -23.258,20 -1.016,1.21 -2.838,3.37 -4.049,4.8 -2.2,2.598 -2.399,3.602 -0.403,2.032 0.582,-0.458 1.354,-0.832 1.715,-0.832 0.361,0 0.965,-0.36 1.342,-0.8 0.377,-0.44 1.113,-0.8 1.635,-0.8 0.523,0 1.408,-0.36 1.967,-0.8 0.56,-0.44 1.335,-0.8 1.723,-0.8 0.388,0 1.028,-0.293 1.424,-0.65 0.405,-0.368 1.812,-0.768 3.231,-0.92 1.382,-0.149 2.899,-0.482 3.371,-0.742 0.472,-0.259 1.912,-0.589 3.2,-0.733 1.288,-0.144 2.613,-0.495 2.944,-0.781 0.331,-0.286 1.591,-0.639 2.8,-0.783 1.209,-0.145 2.738,-0.502 3.398,-0.794 0.66,-0.292 2.73,-0.659 4.6,-0.815 1.87,-0.157 3.732,-0.457 4.137,-0.667 0.405,-0.21 3.153,-0.553 6.105,-0.761 2.953,-0.208 5.862,-0.57 6.463,-0.805 2.417,-0.941 21.225,-0.964 23.054,-0.027 0.902,0.462 2.316,0.947 3.141,1.077 0.825,0.131 1.5,0.398 1.5,0.595 0,0.196 0.819,0.48 1.82,0.63 1.001,0.15 2.063,0.516 2.36,0.813 0.297,0.298 1.275,0.658 2.173,0.802 0.897,0.143 1.837,0.508 2.088,0.811 0.252,0.302 0.863,0.55 1.359,0.55 0.496,0 1.109,0.25 1.362,0.555 0.254,0.305 1.536,1.229 2.849,2.052 1.314,0.824 2.389,1.654 2.389,1.845 0,0.192 0.261,0.348 0.58,0.348 0.319,0 0.724,0.244 0.9,0.542 0.176,0.297 0.77,0.771 1.32,1.052 0.55,0.282 1.75,1.118 2.667,1.859 0.917,0.741 1.834,1.347 2.038,1.347 0.204,0 0.697,0.36 1.095,0.8 0.398,0.44 0.906,0.8 1.128,0.8 0.452,0 0.771,0.27 3.772,3.189 1.155,1.124 2.1,2.204 2.1,2.4 0,0.196 0.36,0.471 0.8,0.611 0.44,0.14 0.8,0.415 0.8,0.612 0,0.197 1.035,1.422 2.3,2.723 4.797,4.932 10.1,11.162 10.1,11.866 0,0.109 0.277,0.514 0.615,0.899 1.481,1.688 2.585,3.249 2.585,3.658 0,0.243 0.205,0.442 0.455,0.442 1.523,0 -0.618,-13.868 -2.301,-14.902 -0.27,-0.167 -0.61,-0.842 -0.755,-1.5 -0.144,-0.659 -0.401,-1.198 -0.57,-1.198 -0.169,0 -0.599,-0.675 -0.955,-1.5 -0.665,-1.543 -1.16,-2.388 -2.374,-4.049 -0.385,-0.528 -0.7,-1.255 -0.7,-1.616 0,-0.361 -0.36,-0.965 -0.8,-1.342 -0.44,-0.377 -0.8,-0.964 -0.8,-1.305 0,-0.341 -0.322,-1.108 -0.716,-1.704 -1.001,-1.515 -1.575,-2.493 -2.281,-3.884 -0.335,-0.66 -1.049,-1.92 -1.587,-2.8 -0.537,-0.88 -1.211,-2.05 -1.497,-2.6 -0.639,-1.232 -1.744,-2.23 -3.319,-2.999 -1.338,-0.653 -4.856,-3.063 -5.834,-3.996 -0.348,-0.333 -0.744,-0.605 -0.88,-0.605 -0.135,0 -1.081,-0.585 -2.101,-1.3 -1.021,-0.715 -2.224,-1.509 -2.674,-1.764 -0.451,-0.255 -0.93,-0.615 -1.065,-0.8 -0.324,-0.442 -2.273,-1.568 -4.146,-2.395 -0.825,-0.364 -1.5,-0.794 -1.5,-0.955 0,-0.161 -1.215,-0.423 -2.7,-0.581 -1.485,-0.159 -3.15,-0.515 -3.7,-0.791 -0.55,-0.276 -2.13,-0.615 -3.51,-0.753 -1.381,-0.138 -3.001,-0.498 -3.6,-0.8 -0.6,-0.303 -2.141,-0.668 -3.424,-0.813 -1.284,-0.145 -2.85,-0.53 -3.481,-0.856 -0.63,-0.325 -1.97,-0.592 -2.978,-0.592 -1.008,0 -2.502,-0.287 -3.32,-0.637 -0.818,-0.35 -2.657,-0.79 -4.087,-0.978 -1.43,-0.188 -3.14,-0.608 -3.8,-0.933 -1.457,-0.718 -7.937,-1.156 -9.6,-0.648 m 164.043,35.763 c 0.133,0.348 0.418,0.633 0.633,0.633 0.526,0 0.197,-0.909 -0.401,-1.108 -0.293,-0.098 -0.382,0.085 -0.232,0.475 M 134.6,260 c -0.16,0.258 -0.11,0.65 0.11,0.87 0.266,0.266 0.496,0.243 0.69,-0.07 0.16,-0.258 0.11,-0.65 -0.11,-0.87 -0.266,-0.266 -0.496,-0.243 -0.69,0.07 m 3.425,3.717 c -0.014,0.394 0.16,0.934 0.386,1.2 0.66,0.775 3.734,4.9 4.389,5.889 1.685,2.543 4.302,4.813 6.98,6.055 0.451,0.209 1.54,0.801 2.42,1.315 3.097,1.809 22.417,11.363 23.8,11.769 1.271,0.374 3.414,0.6 4.7,0.496 0.915,-0.075 0.516,-0.841 -0.438,-0.841 -0.516,0 -1.264,-0.36 -1.662,-0.8 -0.398,-0.44 -1.034,-0.8 -1.413,-0.8 -0.379,0 -0.913,-0.27 -1.187,-0.6 -0.274,-0.33 -0.707,-0.6 -0.962,-0.6 -0.256,0 -1.629,-0.624 -3.051,-1.387 -1.423,-0.762 -3.037,-1.592 -3.587,-1.842 -0.55,-0.251 -1.27,-0.618 -1.6,-0.815 -0.33,-0.197 -1.05,-0.537 -1.6,-0.757 -0.55,-0.219 -1.27,-0.582 -1.6,-0.807 -0.33,-0.224 -1.185,-0.677 -1.9,-1.005 -0.715,-0.329 -1.3,-0.775 -1.3,-0.992 0,-0.217 -0.443,-0.395 -0.984,-0.395 -0.542,0 -1.307,-0.323 -1.7,-0.718 -0.394,-0.395 -1.211,-0.931 -1.816,-1.192 -0.605,-0.26 -1.1,-0.657 -1.1,-0.881 0,-0.225 -0.242,-0.409 -0.538,-0.409 -0.296,0 -0.864,-0.36 -1.262,-0.8 -0.398,-0.44 -0.938,-0.8 -1.2,-0.8 -0.262,0 -0.802,-0.36 -1.2,-0.8 -0.398,-0.44 -0.965,-0.8 -1.259,-0.8 -0.294,0 -0.759,-0.36 -1.034,-0.8 -0.275,-0.44 -0.788,-0.8 -1.141,-0.8 -0.353,0 -0.968,-0.36 -1.366,-0.8 -0.398,-0.44 -0.872,-0.8 -1.053,-0.8 -0.181,0 -1.351,-0.99 -2.6,-2.2 -1.249,-1.21 -2.519,-2.2 -2.822,-2.2 -0.303,0 -0.714,-0.405 -0.913,-0.9 -0.287,-0.715 -0.367,-0.753 -0.387,-0.183"
       stroke="none"
       fill="#1c2253"
       fill-rule="evenodd" /><path
       id="path3-2"
       d="m 252.9,47.865 c -0.275,0.111 -0.5,0.457 -0.5,0.768 0,0.461 -1.005,0.567 -5.376,0.567 -3.211,0 -5.478,0.164 -5.628,0.407 -0.138,0.223 -0.42,0.302 -0.626,0.174 -0.207,-0.127 -0.484,0.05 -0.616,0.394 -0.201,0.525 -1.126,0.625 -5.797,0.625 -3.644,0 -5.557,0.146 -5.557,0.424 0,0.233 -0.168,0.32 -0.372,0.193 -0.205,-0.126 -0.503,-0.019 -0.662,0.238 -0.174,0.282 -0.117,0.362 0.145,0.2 0.238,-0.147 0.55,-0.081 0.691,0.148 0.142,0.229 0.109,0.391 -0.072,0.36 -2.147,-0.373 -5.426,0.116 -5.614,0.837 -0.164,0.627 -0.546,0.8 -1.763,0.8 -1.286,0 -1.553,0.137 -1.553,0.8 0,0.667 -0.267,0.8 -1.6,0.8 -1.333,0 -1.6,0.133 -1.6,0.8 0,0.652 -0.267,0.8 -1.437,0.8 -1.101,0 -1.487,0.187 -1.647,0.8 -0.156,0.595 -0.546,0.8 -1.52,0.8 -0.796,0 -1.401,0.236 -1.541,0.6 -0.126,0.33 -0.581,0.6 -1.01,0.6 -1.204,0 -2.045,0.429 -2.045,1.043 0,0.373 -0.475,0.557 -1.437,0.557 -1.101,0 -1.487,0.187 -1.647,0.8 -0.164,0.627 -0.546,0.8 -1.763,0.8 -1.286,0 -1.553,0.137 -1.553,0.8 0,0.658 -0.267,0.8 -1.504,0.8 -1.07,0 -1.647,0.23 -2.003,0.8 -0.318,0.51 -0.933,0.8 -1.693,0.8 -0.76,0 -1.375,0.29 -1.693,0.8 -0.275,0.44 -0.906,0.8 -1.403,0.8 -0.637,0 -0.904,0.236 -0.904,0.8 0,0.533 -0.267,0.8 -0.8,0.8 -0.533,0 -0.8,0.267 -0.8,0.8 0,0.533 -0.267,0.8 -0.8,0.8 -0.533,0 -0.8,0.267 -0.8,0.8 0,0.533 -0.267,0.8 -0.8,0.8 -0.533,0 -0.8,0.267 -0.8,0.8 0,0.533 -0.267,0.8 -0.8,0.8 -0.533,0 -0.8,0.267 -0.8,0.8 0,0.533 -0.267,0.8 -0.8,0.8 -0.44,0 -0.8,0.249 -0.8,0.553 0,0.305 -0.36,0.648 -0.8,0.763 -0.44,0.115 -0.8,0.475 -0.8,0.8 0,0.325 -0.36,0.685 -0.8,0.8 -0.44,0.115 -0.8,0.496 -0.8,0.847 0,0.35 -0.287,0.637 -0.637,0.637 -0.351,0 -0.732,0.36 -0.847,0.8 -0.115,0.44 -0.475,0.8 -0.8,0.8 -0.325,0 -0.685,0.36 -0.8,0.8 -0.115,0.44 -0.437,0.8 -0.716,0.8 -0.279,0 -0.601,0.36 -0.716,0.8 -0.115,0.44 -0.496,0.8 -0.847,0.8 -0.37,0 -0.637,0.335 -0.637,0.8 0,0.533 -0.267,0.8 -0.8,0.8 -0.658,0 -0.8,0.267 -0.8,1.504 0,1.07 -0.23,1.647 -0.8,2.003 -0.626,0.391 -0.8,0.933 -0.8,2.496 0,1.73 -0.107,1.997 -0.8,1.997 -0.701,0 -0.8,0.267 -0.8,2.153 0,1.817 -0.125,2.186 -0.8,2.363 -0.613,0.16 -0.8,0.546 -0.8,1.647 0,1.383 -0.054,1.437 -1.437,1.437 -1.101,0 -1.487,0.187 -1.647,0.8 -0.159,0.606 -0.546,0.8 -1.6,0.8 -1.054,0 -1.441,0.194 -1.6,0.8 -0.157,0.601 -0.546,0.8 -1.563,0.8 -1.086,0 -1.353,0.158 -1.353,0.8 0,0.667 -0.267,0.8 -1.6,0.8 -1.333,0 -1.6,0.133 -1.6,0.8 0,0.533 -0.267,0.8 -0.8,0.8 -0.444,0 -0.8,0.267 -0.8,0.6 0,0.33 -0.287,0.6 -0.637,0.6 -0.351,0 -0.732,0.36 -0.847,0.8 -0.115,0.44 -0.475,0.8 -0.8,0.8 -0.325,0 -0.681,0.343 -0.79,0.763 -0.11,0.42 -0.543,0.853 -0.963,0.963 -0.42,0.109 -0.763,0.548 -0.763,0.975 0,0.426 -0.36,1.101 -0.8,1.499 -0.44,0.398 -0.8,1.146 -0.8,1.662 0,0.531 -0.24,0.938 -0.553,0.938 -0.321,0 -0.743,0.759 -1.01,1.817 -0.299,1.189 -0.616,1.72 -0.915,1.535 -0.303,-0.188 -0.372,-0.058 -0.203,0.382 0.141,0.366 0.082,0.666 -0.132,0.666 -0.213,0 -0.387,0.45 -0.387,1 0,0.55 -0.151,1 -0.336,1 -0.474,0 -1.264,1.859 -1.264,2.976 0,0.516 -0.27,1.042 -0.6,1.169 -0.511,0.196 -0.6,1.698 -0.597,10.142 l 0.003,9.913 1.077,0.5 c 1.915,0.889 1.46,1.276 8.821,-7.5 8.707,-10.381 19.893,-20 23.256,-20 0.667,0 1.983,-0.261 2.926,-0.579 0.943,-0.318 2.96,-0.777 4.482,-1.019 1.523,-0.241 2.961,-0.558 3.195,-0.703 0.48,-0.297 5.445,-1.481 9.558,-2.279 1.497,-0.291 2.813,-0.621 2.926,-0.733 0.243,-0.243 -2.999,-3.024 -4.555,-3.907 -2.688,-1.526 -4.137,-2.582 -7.789,-5.68 -0.454,-0.385 -1.126,-0.7 -1.494,-0.7 -0.806,0 -2.409,-1.62 -2.409,-2.434 0,-0.522 3.272,-4.372 11.099,-13.058 1.806,-2.004 3.359,-3.276 5.054,-4.14 1.346,-0.686 3.167,-1.673 4.047,-2.192 0.88,-0.519 2.14,-1.246 2.8,-1.615 0.66,-0.369 2.044,-1.321 3.076,-2.116 1.654,-1.275 3.799,-2.67 12.724,-8.28 2.448,-1.538 4.294,-2.159 6.427,-2.163 0.785,-0.001 2.315,-0.265 3.4,-0.587 1.085,-0.322 3.593,-0.77 5.573,-0.996 1.98,-0.227 4.86,-0.68 6.4,-1.008 1.54,-0.329 3.88,-0.607 5.2,-0.618 1.32,-0.012 3.84,-0.306 5.6,-0.654 4.193,-0.83 26.665,-1.299 42,-0.876 11.238,0.309 15.788,0.791 22.413,2.371 1.767,0.421 3.635,0.766 4.152,0.766 0.516,0 2.31,0.346 3.987,0.77 3.097,0.782 6.013,1.333 11.048,2.089 1.54,0.231 3.7,0.692 4.8,1.024 3.592,1.086 6.367,1.15 7.349,0.168 0.468,-0.468 0.986,-0.866 1.151,-0.884 0.165,-0.019 0.39,-0.138 0.5,-0.264 0.11,-0.127 -0.025,-0.102 -0.3,0.056 -0.275,0.159 -0.5,0.098 -0.5,-0.135 0,-0.233 -0.45,-0.424 -1,-0.424 -0.733,0 -1,-0.213 -1,-0.8 0,-0.517 -0.267,-0.8 -0.753,-0.8 -0.417,0 -0.847,-0.357 -0.963,-0.8 -0.115,-0.44 -0.496,-0.8 -0.847,-0.8 -0.35,0 -0.997,-0.36 -1.437,-0.8 -0.44,-0.44 -1.058,-0.8 -1.373,-0.8 -0.315,0 -0.687,-0.36 -0.827,-0.8 -0.14,-0.44 -0.602,-0.8 -1.027,-0.8 -0.425,0 -0.773,-0.256 -0.773,-0.568 0,-0.313 -0.558,-0.691 -1.241,-0.841 -0.682,-0.15 -1.582,-0.614 -2,-1.032 C 335.867,61.867 335.038,61.6 334,61.6 c -0.88,0 -1.6,-0.191 -1.6,-0.424 0,-0.233 0.208,-0.295 0.462,-0.138 0.288,0.178 0.353,0.11 0.172,-0.183 -0.159,-0.257 -0.444,-0.372 -0.634,-0.255 -0.19,0.117 -0.458,0.03 -0.596,-0.193 C 331.666,60.183 330.933,60 330.176,60 329.22,60 328.8,59.817 328.8,59.4 c 0,-0.433 -0.444,-0.6 -1.6,-0.6 -1.333,0 -1.6,-0.133 -1.6,-0.8 0,-0.667 -0.267,-0.8 -1.6,-0.8 -1.101,0 -1.6,-0.174 -1.6,-0.557 0,-0.715 -0.877,-1.043 -2.786,-1.043 -1.184,0 -1.567,-0.177 -1.73,-0.8 -0.178,-0.68 -0.546,-0.8 -2.447,-0.8 -1.704,0 -2.428,-0.191 -3.037,-0.8 -0.609,-0.609 -1.333,-0.8 -3.037,-0.8 -1.901,0 -2.269,-0.12 -2.447,-0.8 -0.179,-0.683 -0.546,-0.8 -2.501,-0.8 -1.783,0 -2.452,-0.177 -3.015,-0.8 -0.568,-0.627 -1.232,-0.8 -3.079,-0.8 -1.802,0 -2.556,-0.188 -3.213,-0.8 -0.826,-0.77 -40.384,-1.271 -42.208,-0.535"
       stroke="none"
       fill="#b12c25"
       fill-rule="evenodd" /><path
       id="path4-9"
       d="m 269.2,65.609 c -9.333,0.203 -13.903,0.463 -16.2,0.923 -1.76,0.352 -4.28,0.649 -5.6,0.661 -1.32,0.011 -3.66,0.289 -5.2,0.618 -1.54,0.328 -4.42,0.781 -6.4,1.008 -1.98,0.226 -4.488,0.674 -5.573,0.996 -1.085,0.322 -2.615,0.586 -3.4,0.587 -2.133,0.004 -3.979,0.625 -6.427,2.163 -8.925,5.61 -11.07,7.005 -12.724,8.28 -1.032,0.795 -2.416,1.747 -3.076,2.116 -0.66,0.369 -1.92,1.096 -2.8,1.615 -0.88,0.519 -2.701,1.506 -4.047,2.192 -2.525,1.287 -2.883,1.642 -11.906,11.823 -5,5.641 -5.237,7.044 -1.347,7.964 0.605,0.143 1.107,0.482 1.116,0.753 0.008,0.27 0.255,-0.048 0.547,-0.708 0.339,-0.765 1.385,-1.699 2.884,-2.575 1.294,-0.757 3.073,-1.94 3.953,-2.63 0.88,-0.69 1.915,-1.37 2.3,-1.512 0.385,-0.142 0.7,-0.534 0.7,-0.87 0,-0.337 0.225,-0.616 0.5,-0.619 0.333,-0.004 0.3,-0.136 -0.1,-0.394 -0.511,-0.33 -0.494,-0.389 0.113,-0.394 0.391,-0.003 0.828,-0.307 0.969,-0.675 0.141,-0.369 0.586,-0.999 0.987,-1.4 0.402,-0.402 0.731,-1.181 0.731,-1.731 0,-0.733 0.213,-1 0.8,-1 0.44,0 0.8,-0.25 0.8,-0.555 0,-0.316 0.589,-0.666 1.361,-0.811 0.749,-0.141 1.457,-0.504 1.573,-0.807 0.117,-0.303 0.776,-0.676 1.466,-0.827 0.69,-0.151 1.351,-0.528 1.47,-0.838 0.31,-0.808 5.33,-0.803 5.33,0.006 0,0.317 0.576,0.693 1.3,0.85 0.715,0.156 1.427,0.482 1.581,0.725 0.198,0.312 0.85,0.224 2.2,-0.299 1.056,-0.408 3.089,-0.957 4.519,-1.22 1.43,-0.263 2.993,-0.691 3.474,-0.951 0.48,-0.26 1.499,-0.473 2.264,-0.473 0.765,0 2.352,-0.34 3.526,-0.756 1.175,-0.416 3.036,-0.945 4.136,-1.176 1.1,-0.23 3.53,-0.799 5.4,-1.264 1.87,-0.465 4.48,-1.084 5.8,-1.376 1.32,-0.291 3.48,-0.811 4.8,-1.155 2.466,-0.641 8.385,-1.212 19.6,-1.89 3.52,-0.213 8.83,-0.585 11.8,-0.827 2.97,-0.242 6.57,-0.535 8,-0.651 1.514,-0.123 4.439,0.065 7,0.449 2.42,0.363 5.66,0.822 7.2,1.02 1.54,0.197 3.97,0.547 5.4,0.777 7.092,1.141 9.311,1.365 12.962,1.31 3.47,-0.053 4.032,-0.16 4.523,-0.861 0.442,-0.631 1.014,-0.8 2.705,-0.8 2.513,0 3.41,-0.274 3.41,-1.043 0,-0.432 0.76,-0.557 3.397,-0.557 2.963,0 3.46,-0.102 3.896,-0.8 0.46,-0.737 0.933,-0.8 6.003,-0.8 h 5.504 v -1.174 c 0,-2.582 -0.627,-3.339 -2.506,-3.03 -3.061,0.505 -6.058,0.413 -8.294,-0.254 -1.21,-0.361 -3.46,-0.847 -5,-1.08 -5.104,-0.772 -7.967,-1.314 -11.048,-2.092 -1.677,-0.424 -3.471,-0.77 -3.987,-0.77 -0.517,0 -2.385,-0.343 -4.152,-0.763 -5.993,-1.423 -10.794,-2.018 -18.013,-2.234 -15.209,-0.454 -17.572,-0.469 -30.2,-0.194 m 70.643,45.824 c -0.376,0.978 -0.287,4.493 0.12,4.744 0.199,0.123 0.491,1.169 0.649,2.323 0.158,1.155 0.468,2.55 0.689,3.1 0.478,1.192 1.664,6.508 2.478,11.11 0.322,1.82 0.684,3.468 0.804,3.663 0.214,0.346 1.502,7.1 2.244,11.763 0.205,1.285 0.646,3.282 0.982,4.436 0.518,1.783 0.545,2.941 0.173,7.664 -0.24,3.06 -0.581,7.994 -0.758,10.964 -0.345,5.795 -0.152,5.203 -3.51,10.739 -0.487,0.804 -1.168,2.001 -1.513,2.661 -0.344,0.66 -0.936,1.679 -1.314,2.265 -0.882,1.367 -3.069,5.155 -3.425,5.935 -0.151,0.33 -0.798,1.41 -1.438,2.4 -0.64,0.99 -1.647,2.7 -2.238,3.8 -0.592,1.1 -1.304,2.27 -1.583,2.6 -0.278,0.33 -0.804,1.14 -1.167,1.8 -0.363,0.66 -1.013,1.74 -1.444,2.4 -0.431,0.66 -0.908,1.47 -1.061,1.8 -0.152,0.33 -1.201,2.04 -2.33,3.8 -2.138,3.333 -2.436,3.816 -5.798,9.4 -3.859,6.41 -4.613,7.475 -9.603,13.574 -2.75,3.361 -6.412,7.846 -8.138,9.968 -1.726,2.122 -4.279,5.028 -5.673,6.458 -2.183,2.24 -3.427,3.258 -7.692,6.296 -1.607,1.145 -5.544,4.081 -6.132,4.572 -0.349,0.293 -0.979,0.76 -1.4,1.038 -1.612,1.066 -2.917,2.007 -7.565,5.456 -15.545,11.535 -13.781,10.583 -21.2,11.441 -1.98,0.229 -4.86,0.672 -6.4,0.984 -1.54,0.312 -4.15,0.678 -5.8,0.812 -1.65,0.134 -5.07,0.502 -7.6,0.818 -6.873,0.859 -14.381,0.938 -15.614,0.166 -0.894,-0.56 -2.198,-1.088 -9.186,-3.719 -1.21,-0.455 -2.38,-0.95 -2.6,-1.099 -0.58,-0.393 -9.437,-3.837 -10.5,-4.082 -1.157,-0.267 -1.254,0.899 -0.1,1.201 0.44,0.115 0.8,0.364 0.8,0.552 0,0.189 0.495,0.607 1.1,0.93 0.605,0.322 1.769,1.182 2.587,1.91 0.817,0.728 1.949,1.684 2.515,2.124 0.566,0.44 1.337,1.076 1.714,1.414 0.376,0.337 1.469,1.141 2.43,1.786 0.96,0.644 1.834,1.403 1.942,1.686 0.109,0.283 0.349,0.514 0.535,0.514 0.326,0 1.497,0.782 5.85,3.91 1.14,0.82 2.458,1.985 2.928,2.589 l 0.856,1.099 -1.064,0.405 c -0.716,0.272 -2.198,0.273 -4.529,0.002 -1.905,-0.221 -6.884,-0.585 -11.064,-0.809 -13.127,-0.704 -17.87,-1.363 -19.6,-2.724 -0.609,-0.48 -1.326,-0.872 -1.593,-0.872 -0.266,0 -0.9,-0.36 -1.407,-0.8 -0.507,-0.44 -1.233,-0.8 -1.612,-0.8 -0.38,0 -0.905,-0.258 -1.167,-0.574 -0.262,-0.316 -1.002,-0.69 -1.644,-0.831 -0.642,-0.141 -1.258,-0.403 -1.369,-0.582 -0.111,-0.18 -1.418,-0.893 -2.905,-1.585 -1.487,-0.693 -2.973,-1.43 -3.303,-1.638 -0.33,-0.208 -1.163,-0.632 -1.851,-0.943 -0.688,-0.311 -1.365,-0.75 -1.505,-0.975 -0.139,-0.226 -0.779,-0.526 -1.421,-0.667 -0.642,-0.141 -1.382,-0.515 -1.644,-0.831 -0.262,-0.316 -0.787,-0.574 -1.166,-0.574 -0.379,0 -1.015,-0.36 -1.413,-0.8 -0.398,-0.44 -0.865,-0.8 -1.037,-0.8 -0.173,0 -2.321,-1.353 -4.774,-3.008 -2.453,-1.654 -4.385,-2.779 -4.293,-2.5 0.092,0.28 0.557,0.704 1.033,0.944 0.476,0.239 1.196,0.734 1.6,1.1 0.404,0.365 0.917,0.664 1.141,0.664 0.223,0 0.732,0.36 1.13,0.8 0.398,0.44 0.966,0.8 1.262,0.8 0.296,0 0.538,0.184 0.538,0.409 0,0.224 0.495,0.621 1.1,0.881 0.605,0.261 1.422,0.797 1.816,1.192 0.393,0.395 1.158,0.718 1.7,0.718 0.541,0 0.984,0.178 0.984,0.395 0,0.217 0.585,0.663 1.3,0.992 0.715,0.328 1.57,0.781 1.9,1.005 0.33,0.225 1.05,0.588 1.6,0.807 0.55,0.22 1.27,0.56 1.6,0.757 0.33,0.197 1.05,0.564 1.6,0.815 0.55,0.25 2.164,1.08 3.587,1.842 1.422,0.763 2.795,1.387 3.051,1.387 0.255,0 0.688,0.27 0.962,0.6 0.274,0.33 0.808,0.6 1.187,0.6 0.379,0 1.015,0.36 1.413,0.8 0.398,0.44 1.146,0.8 1.662,0.8 0.954,0 1.353,0.766 0.438,0.841 -1.286,0.104 -3.429,-0.122 -4.7,-0.496 -1.383,-0.406 -20.703,-9.96 -23.8,-11.769 -0.88,-0.514 -1.969,-1.106 -2.42,-1.315 -2.678,-1.242 -5.295,-3.512 -6.98,-6.055 -0.655,-0.989 -3.729,-5.114 -4.389,-5.889 -0.226,-0.266 -0.411,-0.83 -0.411,-1.254 0,-0.423 -0.821,-1.969 -1.825,-3.435 -1.004,-1.466 -2.414,-3.782 -3.135,-5.147 -2.135,-4.045 -5.529,-10.363 -6.49,-12.081 -4.246,-7.591 -5.969,-11.254 -7.15,-15.2 -0.593,-1.98 -1.263,-4.05 -1.488,-4.6 -0.225,-0.55 -0.639,-1.9 -0.92,-3 -0.281,-1.1 -0.73,-2.63 -0.999,-3.4 -0.268,-0.77 -0.796,-2.3 -1.171,-3.4 -0.376,-1.1 -1,-2.9 -1.388,-4 -1.896,-5.387 -1.54,-9.666 1.418,-17.074 0.411,-1.031 0.748,-2.095 0.748,-2.364 0,-0.458 0.81,-2.189 6.842,-14.621 1.297,-2.672 2.358,-5.056 2.358,-5.298 0,-0.242 1.141,-1.684 2.537,-3.204 2.697,-2.939 3.863,-4.924 3.863,-6.576 0,-0.559 0.18,-1.127 0.4,-1.263 0.22,-0.136 0.399,-0.552 0.398,-0.924 -0.002,-0.428 -0.222,-0.255 -0.6,0.47 -0.329,0.63 -0.598,1.385 -0.598,1.679 0,1.093 -2.036,4.305 -3.964,6.253 -1.096,1.108 -2.107,2.533 -2.246,3.168 -0.14,0.635 -0.405,1.154 -0.591,1.154 -0.185,0 -0.554,0.675 -0.819,1.5 -0.264,0.825 -0.707,1.77 -0.983,2.1 -0.276,0.33 -0.635,1.05 -0.797,1.6 -0.162,0.55 -0.519,1.27 -0.794,1.6 -0.274,0.33 -0.622,1.117 -0.772,1.748 -0.15,0.632 -0.535,1.41 -0.854,1.729 -0.319,0.319 -0.58,0.9 -0.58,1.29 0,0.391 -0.36,1.126 -0.8,1.633 -0.44,0.507 -0.8,1.317 -0.8,1.799 0,0.482 -0.36,1.203 -0.8,1.601 -0.44,0.398 -0.8,1.147 -0.8,1.663 0,0.517 -0.36,1.612 -0.8,2.433 -0.44,0.82 -0.8,1.95 -0.8,2.509 0,0.559 -0.276,1.411 -0.614,1.893 -0.338,0.482 -0.724,2.058 -0.859,3.502 -0.135,1.444 -0.399,2.721 -0.586,2.836 -0.444,0.275 -0.442,2.054 0.002,2.329 0.188,0.116 0.453,1.142 0.588,2.278 0.134,1.137 0.496,2.357 0.804,2.712 0.308,0.355 0.658,1.424 0.779,2.376 0.12,0.952 0.503,2.046 0.852,2.432 0.349,0.385 0.634,1.228 0.634,1.874 0,0.646 0.36,1.847 0.8,2.667 0.44,0.821 0.8,2.034 0.8,2.696 0,0.662 0.36,1.875 0.8,2.696 0.44,0.82 0.8,1.947 0.8,2.504 0,0.557 0.36,1.684 0.8,2.504 0.44,0.821 0.8,1.922 0.8,2.446 0,0.523 0.258,1.167 0.574,1.429 0.316,0.262 0.693,1.016 0.838,1.676 0.145,0.659 0.5,1.29 0.79,1.401 0.289,0.111 0.643,0.67 0.787,1.241 0.143,0.572 0.609,1.483 1.036,2.025 0.426,0.542 0.775,1.327 0.775,1.744 0,0.418 0.27,0.863 0.6,0.989 0.33,0.127 0.6,0.547 0.6,0.934 0,0.387 0.322,1.132 0.716,1.657 0.394,0.525 0.932,1.404 1.197,1.954 0.453,0.941 0.699,1.392 1.695,3.1 0.224,0.385 0.694,1.33 1.043,2.1 0.349,0.77 0.886,1.544 1.192,1.72 0.306,0.176 0.557,0.687 0.557,1.137 0,0.449 0.36,1.274 0.8,1.834 0.765,0.972 1.093,2.509 0.536,2.509 -0.315,0 -2.198,-2.045 -3.677,-3.994 -1.231,-1.622 -2.647,-3.309 -4.059,-4.837 -0.55,-0.596 -2.08,-2.379 -3.4,-3.963 -1.32,-1.584 -4.063,-4.791 -6.096,-7.127 -4.044,-4.646 -4.473,-5.576 -5.501,-11.927 -0.296,-1.827 -0.639,-3.486 -0.762,-3.686 -0.124,-0.2 -0.487,-1.872 -0.808,-3.715 -1.535,-8.815 -2.208,-12.388 -2.394,-12.687 -0.111,-0.18 -0.394,-1.573 -0.629,-3.096 -0.235,-1.522 -0.694,-3.938 -1.02,-5.368 -0.838,-3.671 -1.762,-8.525 -2.244,-11.788 -0.227,-1.533 -0.562,-3.068 -0.745,-3.411 -0.184,-0.342 -0.53,-2.034 -0.77,-3.759 -0.24,-1.725 -0.72,-4.112 -1.066,-5.304 -0.386,-1.328 -0.532,-2.75 -0.376,-3.671 0.43,-2.55 -0.305,-3.834 -1.764,-3.08 -0.652,0.337 -1.604,0.613 -2.116,0.613 -0.512,0 -1.349,0.293 -1.861,0.651 -0.511,0.359 -1.496,0.802 -2.189,0.985 -5.543,1.466 -8.942,4.432 -12.924,11.277 -0.255,0.439 -0.977,1.359 -1.603,2.043 -0.627,0.684 -1.677,2.048 -2.335,3.031 -0.659,0.982 -1.467,2.088 -1.797,2.458 -1.481,1.657 -2.59,3.065 -3.556,4.516 -0.574,0.862 -1.356,2.033 -1.738,2.603 -1.211,1.808 -1.506,2.828 -1.506,5.213 0,1.279 -0.26,2.947 -0.577,3.707 -0.318,0.76 -0.693,2.807 -0.834,4.549 -0.142,1.742 -0.513,3.981 -0.825,4.975 -1.404,4.473 -1.492,29.475 -0.112,31.592 0.359,0.55 0.765,1.888 0.903,2.974 0.137,1.086 0.519,2.384 0.847,2.886 0.329,0.501 0.598,1.596 0.598,2.432 0,0.836 0.36,2.192 0.8,3.012 0.44,0.821 0.8,2.045 0.8,2.72 0,0.675 0.347,2.071 0.77,3.102 0.424,1.031 0.885,2.725 1.024,3.765 0.139,1.04 0.411,1.989 0.606,2.109 0.195,0.12 0.465,1.069 0.601,2.109 0.469,3.591 2.631,6.983 4.8,7.527 0.531,0.133 1.166,0.483 1.41,0.778 0.244,0.294 0.97,0.65 1.612,0.791 0.642,0.141 1.272,0.425 1.4,0.632 0.127,0.206 0.804,0.639 1.504,0.961 0.7,0.322 1.543,0.752 1.873,0.955 0.33,0.203 1.77,0.937 3.2,1.631 2.885,1.399 7.074,3.531 8,4.072 0.33,0.192 1.05,0.566 1.6,0.831 0.55,0.265 1.429,0.803 1.954,1.197 0.525,0.394 1.207,0.716 1.516,0.716 0.673,0 2.173,1.03 5.927,4.069 2.697,2.183 5.1,4.422 12.749,11.874 3.758,3.662 3.873,3.721 10.654,5.448 1.21,0.308 3.46,0.926 5,1.373 5.873,1.705 8.874,2.528 11,3.018 1.21,0.279 3.1,0.788 4.2,1.132 1.1,0.343 3.26,0.985 4.8,1.427 1.54,0.442 4.06,1.178 5.6,1.637 1.54,0.458 3.124,0.831 3.52,0.828 0.396,-0.003 1.296,0.309 2,0.694 1.646,0.9 39.333,1.039 44.88,0.165 1.76,-0.277 5.09,-0.663 7.4,-0.856 6.05,-0.507 12.233,-1.851 14.6,-3.175 3.013,-1.685 9.285,-3.348 17.506,-4.642 1.929,-0.304 3.681,-0.66 3.894,-0.792 0.213,-0.131 1.515,-0.488 2.893,-0.792 1.379,-0.305 3.767,-1.025 5.307,-1.601 1.54,-0.576 3.313,-1.211 3.939,-1.41 1.477,-0.471 3.747,-1.53 9.744,-4.543 7.932,-3.986 9.522,-4.935 11.637,-6.943 1.553,-1.475 7.43,-6.81 9.648,-8.758 0.973,-0.854 2.601,-2.363 3.618,-3.353 1.018,-0.99 3.451,-3.24 5.409,-5 1.957,-1.76 4.738,-4.284 6.181,-5.61 1.443,-1.325 3.321,-3.035 4.172,-3.8 0.851,-0.764 2.471,-2.268 3.6,-3.34 1.129,-1.073 3.376,-3.143 4.994,-4.6 3.159,-2.845 3.674,-3.74 8.664,-15.05 0.292,-0.66 1.264,-2.771 2.162,-4.692 0.898,-1.92 1.632,-3.61 1.632,-3.755 0,-0.144 0.696,-1.723 1.547,-3.508 0.851,-1.785 1.946,-4.145 2.435,-5.245 1.356,-3.054 2.426,-4.988 4.095,-7.4 0.837,-1.21 1.522,-2.337 1.522,-2.504 10e-4,-0.167 0.591,-1.157 1.312,-2.2 1.831,-2.646 2.601,-4.593 3.285,-8.296 0.326,-1.76 0.76,-4.1 0.967,-5.2 0.206,-1.1 0.753,-4.25 1.215,-7 0.462,-2.75 1.027,-5.99 1.257,-7.2 0.23,-1.21 0.601,-3.37 0.825,-4.8 0.223,-1.43 0.745,-3.95 1.16,-5.6 0.414,-1.65 0.877,-5.025 1.027,-7.5 0.244,-4.013 0.353,-4.5 1.013,-4.5 0.682,0 0.74,-0.408 0.74,-5.2 0,-4.933 -0.041,-5.2 -0.8,-5.2 -0.704,0 -0.8,-0.267 -0.8,-2.229 0,-1.447 -0.21,-2.438 -0.6,-2.828 -0.33,-0.33 -0.6,-1.16 -0.6,-1.845 0,-0.685 -0.343,-1.977 -0.761,-2.872 -0.419,-0.894 -0.879,-2.478 -1.024,-3.519 -0.144,-1.042 -0.496,-2.032 -0.782,-2.2 -0.286,-0.169 -0.617,-1.196 -0.736,-2.283 -0.125,-1.141 -0.486,-2.173 -0.856,-2.444 -0.409,-0.299 -0.641,-1.067 -0.641,-2.124 0,-1.103 -0.258,-1.914 -0.773,-2.429 -0.425,-0.425 -0.83,-1.37 -0.9,-2.1 -0.082,-0.856 -0.34,-1.327 -0.727,-1.327 -0.401,0 -0.64,-0.483 -0.722,-1.459 -0.087,-1.048 -0.341,-1.516 -0.9,-1.663 -0.589,-0.154 -0.778,-0.553 -0.778,-1.641 0,-1.17 -0.148,-1.437 -0.8,-1.437 -0.667,0 -0.8,-0.267 -0.8,-1.6 0,-1.333 -0.133,-1.6 -0.8,-1.6 -0.662,0 -0.8,-0.267 -0.8,-1.551 0,-1.602 -0.926,-2.971 -1.33,-1.966 -0.114,0.284 -0.221,-0.226 -0.238,-1.134 -0.019,-0.946 -0.288,-1.864 -0.632,-2.149 -0.33,-0.274 -0.6,-0.737 -0.6,-1.03 0,-1.655 -1.311,-3.1 -1.757,-1.937 m -143.394,3.751 c 1.072,0.969 1.518,1.6 1.151,1.628 -1.199,0.089 0.993,0.732 2.6,0.762 0.88,0.017 2.135,0.31 2.788,0.651 0.654,0.34 2.364,0.773 3.8,0.96 1.437,0.188 3.281,0.628 4.099,0.978 0.818,0.35 2.312,0.637 3.32,0.637 1.008,0 2.348,0.267 2.978,0.592 0.631,0.326 2.197,0.711 3.481,0.856 1.283,0.145 2.824,0.51 3.424,0.813 0.599,0.302 2.219,0.662 3.6,0.8 1.38,0.138 2.96,0.477 3.51,0.753 0.55,0.276 2.215,0.632 3.7,0.791 1.485,0.158 2.7,0.42 2.7,0.581 0,0.161 0.675,0.591 1.5,0.955 1.873,0.827 3.822,1.953 4.146,2.395 0.135,0.185 0.614,0.545 1.065,0.8 0.45,0.255 1.653,1.049 2.674,1.764 1.02,0.715 1.966,1.3 2.101,1.3 0.136,0 0.532,0.272 0.88,0.605 0.978,0.933 4.496,3.343 5.834,3.996 1.575,0.769 2.68,1.767 3.319,2.999 0.286,0.55 0.96,1.72 1.497,2.6 0.538,0.88 1.252,2.14 1.587,2.8 0.706,1.391 1.28,2.369 2.281,3.884 0.394,0.596 0.716,1.363 0.716,1.704 0,0.341 0.36,0.928 0.8,1.305 0.44,0.377 0.8,0.981 0.8,1.342 0,0.361 0.315,1.088 0.7,1.616 1.214,1.661 1.709,2.506 2.374,4.049 0.356,0.825 0.786,1.5 0.955,1.5 0.169,0 0.426,0.539 0.57,1.198 0.145,0.658 0.485,1.333 0.755,1.5 1.683,1.034 3.824,14.902 2.301,14.902 -0.25,0 -0.455,-0.199 -0.455,-0.442 0,-0.409 -1.104,-1.97 -2.585,-3.658 -0.338,-0.385 -0.615,-0.79 -0.615,-0.899 0,-0.704 -5.303,-6.934 -10.1,-11.866 -1.265,-1.301 -2.3,-2.526 -2.3,-2.723 0,-0.197 -0.36,-0.472 -0.8,-0.612 -0.44,-0.14 -0.8,-0.415 -0.8,-0.611 0,-0.196 -0.945,-1.276 -2.1,-2.4 -3.001,-2.919 -3.32,-3.189 -3.772,-3.189 -0.222,0 -0.73,-0.36 -1.128,-0.8 -0.398,-0.44 -0.891,-0.8 -1.095,-0.8 -0.204,0 -1.121,-0.606 -2.038,-1.347 -0.917,-0.741 -2.117,-1.577 -2.667,-1.859 -0.55,-0.281 -1.144,-0.755 -1.32,-1.052 -0.176,-0.298 -0.581,-0.542 -0.9,-0.542 -0.319,0 -0.58,-0.156 -0.58,-0.348 0,-0.191 -1.075,-1.021 -2.389,-1.845 -1.313,-0.823 -2.595,-1.747 -2.849,-2.052 -0.253,-0.305 -0.866,-0.555 -1.362,-0.555 -0.496,0 -1.107,-0.248 -1.359,-0.55 -0.251,-0.303 -1.191,-0.668 -2.088,-0.811 -0.898,-0.144 -1.876,-0.504 -2.173,-0.802 -0.297,-0.297 -1.359,-0.663 -2.36,-0.813 -1.001,-0.15 -1.82,-0.434 -1.82,-0.63 0,-0.197 -0.675,-0.462 -1.5,-0.589 -0.825,-0.127 -2.176,-0.592 -3.003,-1.032 -2.329,-1.24 -17.703,-1.003 -25.297,0.391 -1.372,0.251 -0.241,0.283 3.6,0.101 10.344,-0.49 20.172,-0.295 22.4,0.444 1.1,0.364 2.9,0.957 4,1.316 1.1,0.359 2.54,0.886 3.2,1.171 0.66,0.285 2.28,0.912 3.6,1.393 3.735,1.36 4.404,1.759 10.248,6.121 1.542,1.151 5.146,3.696 8.152,5.757 1.54,1.056 2.89,2.037 3,2.181 0.11,0.144 2.748,2.939 5.863,6.212 5.668,5.956 10.11,11.18 12.346,14.518 0.655,0.978 1.789,2.418 2.52,3.2 0.731,0.782 1.476,1.782 1.657,2.222 0.647,1.579 0.976,-1.392 0.44,-3.98 -0.276,-1.331 -0.642,-4.22 -0.813,-6.42 -0.252,-3.236 -0.512,-4.344 -1.362,-5.8 -0.578,-0.99 -1.324,-2.34 -1.657,-3 -0.333,-0.66 -0.776,-1.47 -0.984,-1.8 -0.467,-0.742 -3.803,-6.763 -5.097,-9.2 -0.526,-0.99 -1.379,-2.52 -1.895,-3.4 -0.516,-0.88 -1.503,-2.709 -2.194,-4.064 -0.691,-1.356 -1.519,-2.683 -1.84,-2.949 -0.321,-0.267 -0.584,-0.717 -0.584,-1 0,-0.474 -3.072,-2.689 -10.945,-7.894 -0.41,-0.271 -1.38,-0.988 -2.155,-1.593 -0.776,-0.605 -1.573,-1.1 -1.772,-1.1 -0.199,0 -0.579,-0.182 -0.845,-0.404 -2.728,-2.283 -5.95,-3.996 -7.517,-3.996 -0.655,0 -1.809,-0.258 -2.564,-0.573 -0.754,-0.315 -2.233,-0.686 -3.287,-0.825 -1.053,-0.138 -2.635,-0.498 -3.515,-0.801 -0.88,-0.303 -2.68,-0.736 -4,-0.962 -3.827,-0.655 -8.236,-1.601 -10.4,-2.232 -1.1,-0.32 -2.808,-0.701 -3.795,-0.846 -0.987,-0.145 -2.446,-0.493 -3.242,-0.774 -0.797,-0.281 -2.659,-0.641 -4.139,-0.799 -2.347,-0.252 -2.92,-0.486 -4.482,-1.838 -2.35,-2.034 -2.75,-2.007 -0.493,0.034 M 185.6,137.666 c -0.77,0.212 -3.2,0.612 -5.4,0.891 -2.2,0.278 -4.36,0.708 -4.8,0.955 -0.44,0.247 -1.822,0.559 -3.072,0.694 -1.367,0.147 -2.482,0.503 -2.8,0.894 -0.463,0.57 -0.429,0.609 0.272,0.322 0.44,-0.181 1.61,-0.496 2.6,-0.701 0.99,-0.205 2.7,-0.619 3.8,-0.92 1.1,-0.301 3.694,-0.746 5.764,-0.99 2.07,-0.244 3.941,-0.552 4.157,-0.686 0.216,-0.133 1.852,-0.37 3.636,-0.526 l 3.243,-0.284 -3,-0.017 c -1.65,-0.009 -3.63,0.157 -4.4,0.368 m -20.635,4.311 c -0.679,0.162 -1.489,0.454 -1.8,0.647 -0.311,0.193 -1.696,0.469 -3.078,0.614 -1.43,0.149 -2.822,0.542 -3.231,0.912 -0.396,0.357 -1.036,0.65 -1.424,0.65 -0.388,0 -1.163,0.36 -1.723,0.8 -0.559,0.44 -1.444,0.8 -1.967,0.8 -0.522,0 -1.258,0.36 -1.635,0.8 -0.377,0.44 -0.981,0.8 -1.342,0.8 -0.361,0 -1.096,0.345 -1.632,0.767 -0.537,0.422 -1.665,0.897 -2.507,1.055 -1.184,0.222 -1.387,0.368 -0.893,0.645 0.366,0.204 0.945,0.208 1.353,0.01 2.857,-1.391 5.21,-2.676 5.745,-3.135 0.348,-0.298 0.888,-0.543 1.2,-0.543 0.313,-0.001 1.158,-0.361 1.879,-0.8 0.72,-0.44 1.53,-0.805 1.8,-0.813 0.269,-0.007 1.21,-0.361 2.09,-0.786 0.88,-0.425 2.166,-0.779 2.858,-0.786 0.692,-0.008 2.402,-0.361 3.8,-0.786 1.398,-0.424 2.992,-0.85 3.542,-0.945 0.724,-0.126 0.613,-0.178 -0.4,-0.188 -0.77,-0.007 -1.956,0.12 -2.635,0.282 m -66.297,28.979 c -0.171,1.25 -0.942,2.776 -2.677,5.3 -6.079,8.845 -7.713,11.188 -10.071,14.444 -7.588,10.476 -7.929,11.59 -6.96,22.752 0.36,4.151 0.818,9.438 1.019,11.748 0.38,4.387 0.825,7.5 1.889,13.2 0.349,1.87 0.871,4.93 1.159,6.8 0.635,4.111 1.535,7.447 2.25,8.34 0.291,0.363 0.959,1.56 1.485,2.66 0.526,1.1 1.111,2.27 1.3,2.6 0.189,0.33 0.542,1.05 0.784,1.6 0.242,0.55 0.594,1.27 0.782,1.6 0.189,0.33 1.352,2.58 2.586,5 1.233,2.42 2.398,4.67 2.587,5 0.19,0.33 1.302,2.276 2.472,4.325 1.17,2.049 2.52,4.389 3,5.2 0.479,0.811 1.153,2.015 1.497,2.675 0.344,0.66 1.079,1.92 1.634,2.8 0.556,0.88 1.176,1.988 1.378,2.461 0.203,0.474 0.56,0.979 0.793,1.124 0.415,0.256 0.619,2.615 0.226,2.615 -0.109,0 -1.594,-0.751 -3.3,-1.669 -1.705,-0.918 -3.731,-2 -4.501,-2.406 -0.77,-0.405 -1.67,-0.886 -2,-1.07 -1.34,-0.743 -5.65,-2.984 -9.8,-5.094 -12.467,-6.34 -12.289,-6.23 -12.893,-7.961 -0.902,-2.582 -2.848,-10.023 -4.291,-16.4 -0.298,-1.32 -0.739,-2.94 -0.979,-3.6 -0.493,-1.356 -1.483,-5.109 -2.057,-7.8 -0.211,-0.99 -0.653,-2.479 -0.982,-3.308 -0.849,-2.142 -0.871,-22.806 -0.026,-25.719 0.314,-1.085 0.771,-3.667 1.016,-5.737 0.244,-2.07 0.529,-3.902 0.634,-4.072 0.105,-0.169 0.452,-2.293 0.772,-4.72 0.634,-4.808 1.085,-6.187 2.845,-8.702 1.248,-1.783 11.81,-15.81 12.155,-16.142 0.115,-0.11 0.727,-0.964 1.36,-1.898 1.788,-2.636 4.445,-4.902 5.748,-4.902 0.616,0 1.475,-0.247 1.909,-0.549 0.434,-0.302 1.419,-0.685 2.189,-0.851 0.77,-0.166 1.755,-0.549 2.189,-0.851 1.842,-1.282 3.145,-0.735 2.879,1.207 M 135.4,260.8 c -0.194,0.313 -0.424,0.336 -0.69,0.07 -0.22,-0.22 -0.27,-0.612 -0.11,-0.87 0.194,-0.313 0.424,-0.336 0.69,-0.07 0.22,0.22 0.27,0.612 0.11,0.87 m 3,2.933 c 0,0.378 0.413,0.844 0.917,1.036 0.505,0.191 1.856,1.267 3.002,2.39 1.147,1.122 2.236,2.041 2.421,2.041 0.185,0 0.662,0.36 1.06,0.8 0.398,0.44 1.011,0.8 1.361,0.8 0.35,0 -0.181,-0.585 -1.18,-1.3 -0.999,-0.715 -2.259,-1.723 -2.799,-2.241 -0.54,-0.517 -1.612,-1.407 -2.382,-1.977 -0.77,-0.57 -1.625,-1.306 -1.9,-1.636 -0.439,-0.525 -0.5,-0.515 -0.5,0.087"
       stroke="none"
       fill="#1c4c44"
       fill-rule="evenodd" /></g></svg>
