<?xml version="1.0" standalone="no"?>
<!DOCTYPE svg PUBLIC "-//W3C//DTD SVG 20010904//EN"
 "http://www.w3.org/TR/2001/REC-SVG-20010904/DTD/svg10.dtd">
<svg version="1.0" xmlns="http://www.w3.org/2000/svg"
 width="256.000000pt" height="256.000000pt" viewBox="0 0 256.000000 256.000000"
 preserveAspectRatio="xMidYMid meet">

<g transform="translate(0.000000,256.000000) scale(0.100000,-0.100000)"
fill="#000000" stroke="none">
<path d="M1750 2243 c-47 -1 -132 -7 -189 -14 -92 -10 -116 -17 -215 -64 -94
-44 -120 -62 -171 -116 -38 -40 -66 -80 -75 -107 -11 -35 -22 -48 -54 -64 -57
-28 -74 -46 -102 -100 -18 -36 -24 -64 -24 -113 0 -70 7 -78 48 -49 12 8 64
26 115 39 127 32 300 37 373 10 75 -27 178 -108 252 -199 l64 -79 -7 54 c-5
36 -23 82 -54 139 -41 74 -57 91 -115 132 -57 39 -84 50 -179 72 -62 15 -117
26 -124 26 -14 0 -103 61 -103 70 0 4 11 12 25 18 13 6 31 27 39 47 10 22 27
41 49 51 30 14 37 15 62 2 25 -13 38 -12 144 13 151 35 330 50 443 36 72 -9
94 -8 145 6 32 9 73 17 91 17 105 0 -37 92 -223 145 -103 29 -114 31 -215 28z"/>
<path d="M586 2013 c-3 -8 -6 -22 -6 -30 0 -34 -77 -204 -132 -291 -43 -68
-65 -115 -82 -180 -21 -78 -25 -84 -34 -62 -39 97 -50 129 -54 148 -3 20 -5
21 -20 10 -22 -16 -58 -258 -58 -387 0 -114 43 -270 115 -413 120 -241 223
-349 430 -448 174 -83 230 -98 405 -108 145 -8 165 -7 326 19 l171 28 145 93
c129 83 155 105 239 199 52 58 99 114 106 125 10 17 11 17 6 -6 -3 -14 30 46
72 132 l77 157 13 143 c8 79 12 159 10 178 -3 19 -10 76 -16 125 -13 107 -58
259 -100 335 -17 30 -28 47 -25 38 3 -10 16 -70 29 -135 19 -90 23 -135 18
-189 -6 -67 -11 -78 -100 -227 -130 -216 -200 -298 -340 -402 -123 -90 -132
-94 -311 -111 -60 -5 -72 -3 -149 30 -46 20 -86 35 -88 32 -2 -2 27 -27 65
-55 39 -28 75 -58 82 -65 12 -15 6 -15 -152 -1 -50 4 -148 49 -265 122 -70 43
-75 49 -129 146 -64 118 -119 275 -110 319 10 49 67 178 94 209 29 35 28 51
-15 248 -26 119 -29 126 -81 190 -58 72 -125 113 -136 84z m-22 -650 l-66 -98
6 -85 c15 -184 39 -259 145 -439 17 -29 26 -51 19 -49 -7 2 -54 25 -104 52
l-92 50 -31 117 c-35 130 -38 186 -16 306 13 76 19 89 74 161 44 58 68 81 93
88 18 6 34 7 36 3 2 -5 -27 -52 -64 -106z"/>
</g>
</svg>
